<svg width="19" height="19" viewBox="0 0 19 19" fill="#00B7FF" xmlns="http://www.w3.org/2000/svg">
    <path fill-rule="evenodd" clip-rule="evenodd" d="M12.7 2V1C12.7 0.447715 13.1477 0 13.7 0C14.2523 0 14.7 0.447715 14.7 1V2.00491C16.8162 2.10912 18.5 3.85793 18.5 6V15C18.5 17.2091 16.7091 19 14.5 19H4.5C2.29086 19 0.5 17.2091 0.5 15V6C0.5 3.79086 2.29086 2 4.5 2H4.7V1C4.7 0.447715 5.14772 0 5.7 0C6.25228 0 6.7 0.447715 6.7 1V2H8.7V1C8.7 0.447715 9.14771 0 9.7 0C10.2523 0 10.7 0.447715 10.7 1V2H12.7ZM12.7 4H10.7C10.7 4.55228 10.2523 5 9.7 5C9.14771 5 8.7 4.55228 8.7 4H6.7C6.7 4.55228 6.25229 5 5.7 5C5.14772 5 4.7 4.55228 4.7 4H4.5C3.39543 4 2.5 4.89543 2.5 6V15C2.5 16.1046 3.39543 17 4.5 17H14.5C15.6046 17 16.5 16.1046 16.5 15V6C16.5 4.96291 15.7106 4.11019 14.7 4.00987C14.6947 4.55761 14.249 5 13.7 5C13.1477 5 12.7 4.55228 12.7 4ZM6.5 10C5.94772 10 5.5 9.55229 5.5 9C5.5 8.44771 5.94772 8 6.5 8H13.5C14.0523 8 14.5 8.44771 14.5 9C14.5 9.55229 14.0523 10 13.5 10H6.5ZM6.5 14C5.94772 14 5.5 13.5523 5.5 13C5.5 12.4477 5.94772 12 6.5 12H11.5C12.0523 12 12.5 12.4477 12.5 13C12.5 13.5523 12.0523 14 11.5 14H6.5Z" fill="#00B7FF"/>
</svg>
