<?xml version="1.0" encoding="UTF-8"?>
<svg xmlns="http://www.w3.org/2000/svg">
  <defs>
    <linearGradient xmlns="http://www.w3.org/2000/svg" xmlns:osb="http://www.openswatchbook.org/uri/2009/osb" osb:paint="solid" id="linearGradient4613">
      <stop id="stop4611" offset="0" style="stop-color:#000000;stop-opacity:1;"/>
    </linearGradient>
    <linearGradient xmlns="http://www.w3.org/2000/svg" xmlns:osb="http://www.openswatchbook.org/uri/2009/osb" osb:paint="solid" id="linearGradient4613">
      <stop id="stop4611" offset="0" style="stop-color:#000000;stop-opacity:1;"/>
    </linearGradient>
    <clipPath xmlns="http://www.w3.org/2000/svg" id="clip0">
<rect width="35" height="35" fill="white"/>
</clipPath>
    <linearGradient xmlns="http://www.w3.org/2000/svg" id="paintig0_linear" x1="10.7724" y1="24.2752" x2="24.2282" y2="10.8192" gradientUnits="userSpaceOnUse">
<stop stop-color="#FFC107"/>
<stop offset="0.507" stop-color="#F44336"/>
<stop offset="0.99" stop-color="#9C27B0"/>
</linearGradient>
    <linearGradient xmlns="http://www.w3.org/2000/svg" id="paintig1_linear" x1="14.9424" y1="20.1048" x2="20.0579" y2="14.9892" gradientUnits="userSpaceOnUse">
<stop stop-color="#FFC107"/>
<stop offset="0.507" stop-color="#F44336"/>
<stop offset="0.99" stop-color="#9C27B0"/>
</linearGradient>
    <linearGradient xmlns="http://www.w3.org/2000/svg" id="paintig2_linear" x1="3.20392" y1="31.7963" x2="31.7961" y2="3.2037" gradientUnits="userSpaceOnUse">
<stop stop-color="#FFC107"/>
<stop offset="0.507" stop-color="#F44336"/>
<stop offset="0.99" stop-color="#9C27B0"/>
</linearGradient>
    <linearGradient xmlns="http://www.w3.org/2000/svg" id="painttg0_linear" x1="13.1267" y1="1.4595" x2="4.37675" y2="21.875" gradientUnits="userSpaceOnUse">
<stop stop-color="#37AEE2"/>
<stop offset="1" stop-color="#1E96C8"/>
</linearGradient>
    <linearGradient xmlns="http://www.w3.org/2000/svg" id="painttg1_linear" x1="15.3081" y1="18.5741" x2="17.178" y2="24.6225" gradientUnits="userSpaceOnUse">
<stop stop-color="#EFF7FC"/>
<stop offset="1" stop-color="white"/>
</linearGradient>
    <clipPath xmlns="http://www.w3.org/2000/svg" id="clip0">
<rect width="35" height="35" fill="white"/>
</clipPath>
  </defs>
  <symbol id="attach" viewBox="0 0 16 19" width="16" height="19">
    <path fill-rule="evenodd" clip-rule="evenodd" d="M1.71391 8.29446L8.23917 1.7692C9.93144 0.076932 12.6752 0.076932 14.3674 1.7692C16.0597 3.46148 16.0597 6.20519 14.3674 7.89746L7.84217 14.4227C6.79726 15.4205 5.14126 15.4062 4.11438 14.3793C3.07298 13.3379 3.07298 11.6494 4.11438 10.608L10.5962 4.12623C10.9867 3.7357 11.6199 3.7357 12.0104 4.12623C12.4009 4.51675 12.4009 5.14992 12.0104 5.54044L5.5286 12.0223C5.26825 12.2826 5.26825 12.7047 5.5286 12.9651C5.78895 13.2254 6.21105 13.2254 6.4714 12.9651L12.9532 6.48325C13.8644 5.57203 13.8644 4.09464 12.9532 3.18342C12.042 2.27219 10.5646 2.27219 9.65339 3.18342L3.17157 9.66523C1.60948 11.2273 1.60948 13.76 3.17157 15.3221C4.73367 16.8842 7.26633 16.8842 8.82843 15.3221L14.1317 10.0188C14.5223 9.62826 15.1554 9.62826 15.5459 10.0188C15.9365 10.4093 15.9365 11.0425 15.5459 11.433L10.2426 16.7363C7.89949 19.0794 4.1005 19.0794 1.75736 16.7363C-0.571287 14.4077 -0.585697 10.6411 1.71413 8.29468L1.71391 8.29446Z" fill="#92929D"/>
  </symbol>
  <symbol id="bell" viewBox="0 0 25 28" width="25" height="28">
    <path fill-rule="evenodd" clip-rule="evenodd" d="M15.6042 5.89017C15.4193 4.2435 14.1006 2.9668 12.5013 2.9668C10.902 2.9668 9.58333 4.24351 9.39849 5.89018C6.79156 7.14605 4.97821 9.93568 4.97821 13.1754V18.7297L3.23811 22.3932C2.88839 23.1295 3.39194 23.999 4.16802 23.999H9.55415C9.98313 25.2888 11.1407 26.2129 12.5013 26.2129C13.862 26.2129 15.0195 25.2888 15.4485 23.999H20.8347C21.6108 23.999 22.1143 23.1295 21.7646 22.3932L20.0245 18.7297V13.1754C20.0245 9.93566 18.2111 7.14603 15.6042 5.89017ZM12.5013 23.999L12.4926 23.999H12.5101L12.5013 23.999ZM18.053 19.492L19.1421 21.785H5.86075L6.94989 19.492C7.02336 19.3374 7.06164 19.1665 7.06164 18.9932V13.1753C7.06164 9.9827 9.49712 7.39456 12.5014 7.39456C15.5058 7.39456 17.9413 9.9827 17.9413 13.1753V18.9932C17.9413 19.1665 17.9795 19.3374 18.053 19.492Z"/>
  </symbol>
  <symbol id="bookmark" viewBox="0 0 6.3499999 6.3500002" width="24" height="24">
    <g xmlns="http://www.w3.org/2000/svg" transform="translate(0,-290.64998)" id="layer1">
    <g transform="matrix(0.26458333,0,0,0.26458333,-0.93689486,291.87992)" id="g3737" style="fill-opacity:1">
      <path style="clip-rule:evenodd;fill-opacity:1;fill-rule:evenodd" d="m 11.47851,-1.8663268 h 8.12495 c 1.841,0 3.3334,1.49238394 3.3334,3.333334 V 14.902456 c 0,0.9204 -0.7462,1.6666 -1.6667,1.6666 -0.3785,0 -0.7457,-0.1288 -1.0412,-0.3652 l -4.688,-3.7509 -4.68788,3.7509 c -0.71873,0.575 -1.7675599,0.4585 -2.3426199,-0.2602 -0.23646,-0.2955 -0.36528,-0.6627 -0.36528,-1.0412 V 1.4670072 c 0,-1.84095006 1.4923801,-3.333334 3.3333299,-3.333334 z m 6e-5,1.66672394 c -0.92048,0 -1.6666698,0.74619 -1.6666698,1.66667006 V 14.902456 l 4.6879198,-3.7508 c 0.60874,-0.487 1.47374,-0.487 2.08244,0 l 4.688,3.7508 V 1.4670672 c 0,-0.92048006 -0.7462,-1.66667006 -1.6667,-1.66667006 z" id="path3726"/>
    </g>
  </g>
  </symbol>
  <symbol id="not-add" viewBox="0 0 16 12" width="16" height="12">
    <path fill-rule="evenodd" clip-rule="evenodd" d="M1.70356 3.97202C1.31108 3.58346 0.677922 3.58663 0.289359 3.97911C-0.0992033 4.37158 -0.0960311 5.00474 0.296445 5.3933L6.12179 11.1606C6.53306 11.5677 7.20302 11.5418 7.58164 11.1042L15.7563 1.65425C16.1176 1.23656 16.0719 0.605045 15.6542 0.243723C15.2365 -0.1176 14.605 -0.0719057 14.2437 0.345784L6.76881 8.98677L1.70356 3.97202Z" fill="#00B7FF"/>
  </symbol>
  <symbol id="not-blank" viewBox="0 0 16 12" width="16" height="12">
    <path d="M0.5 12C0.5 5.64873 5.64873 0.5 12 0.5C18.3513 0.5 23.5 5.64873 23.5 12C23.5 18.3513 18.3513 23.5 12 23.5C5.64873 23.5 0.5 18.3513 0.5 12Z" fill="white" stroke="#F0F0F0"/>
  </symbol>
  <symbol id="not-disabled" viewBox="0 0 16 12" width="16" height="12">
    <path fill-rule="evenodd" clip-rule="evenodd" d="M1.70356 3.97202C1.31108 3.58346 0.677922 3.58663 0.289359 3.97911C-0.0992033 4.37158 -0.0960311 5.00474 0.296445 5.3933L6.12179 11.1606C6.53306 11.5677 7.20302 11.5418 7.58164 11.1042L15.7563 1.65425C16.1176 1.23656 16.0719 0.605045 15.6542 0.243723C15.2365 -0.1176 14.605 -0.0719057 14.2437 0.345784L6.76881 8.98677L1.70356 3.97202Z" fill="#92929d"/>
  </symbol>
  <symbol id="btn-add" viewBox="0 0 24 24" width="24" height="24">
    <path d="M0.5 12C0.5 5.64873 5.64873 0.5 12 0.5C18.3513 0.5 23.5 5.64873 23.5 12C23.5 18.3513 18.3513 23.5 12 23.5C5.64873 23.5 0.5 18.3513 0.5 12Z" fill="white" stroke="#F0F0F0"/>
    <path fill-rule="evenodd" clip-rule="evenodd" d="M12.7132 11.2856H17.7132C18.1077 11.2856 18.4275 11.6054 18.4275 11.9999C18.4275 12.3943 18.1077 12.7141 17.7132 12.7141H12.7132V17.7141C12.7132 18.1086 12.3934 18.4284 11.9989 18.4284C11.6044 18.4284 11.2846 18.1086 11.2846 17.7141V12.7141H6.2846C5.89011 12.7141 5.57031 12.3943 5.57031 11.9999C5.57031 11.6054 5.89011 11.2856 6.2846 11.2856H11.2846V6.28557C11.2846 5.89109 11.6044 5.57129 11.9989 5.57129C12.3934 5.57129 12.7132 5.89109 12.7132 6.28557V11.2856Z" fill="#00B7FF"/>
  </symbol>
  <symbol id="btn-add-gray" viewBox="0 0 24 24" width="24" height="24">
    <path d="M0.5 12C0.5 5.64873 5.64873 0.5 12 0.5C18.3513 0.5 23.5 5.64873 23.5 12C23.5 18.3513 18.3513 23.5 12 23.5C5.64873 23.5 0.5 18.3513 0.5 12Z" fill="white" stroke="#F0F0F0"/>
    <path fill-rule="evenodd" clip-rule="evenodd" d="M12.7132 11.2856H17.7132C18.1077 11.2856 18.4275 11.6054 18.4275 11.9999C18.4275 12.3943 18.1077 12.7141 17.7132 12.7141H12.7132V17.7141C12.7132 18.1086 12.3934 18.4284 11.9989 18.4284C11.6044 18.4284 11.2846 18.1086 11.2846 17.7141V12.7141H6.2846C5.89011 12.7141 5.57031 12.3943 5.57031 11.9999C5.57031 11.6054 5.89011 11.2856 6.2846 11.2856H11.2846V6.28557C11.2846 5.89109 11.6044 5.57129 11.9989 5.57129C12.3934 5.57129 12.7132 5.89109 12.7132 6.28557V11.2856Z" fill="#92929d"/>
  </symbol>
  <symbol id="btn-collapse-v" viewBox="0 0 24 24" width="24" height="24">
    <path fill-rule="evenodd" clip-rule="evenodd" d="M12 10.4142L7.70711 14.7071C7.31658 15.0976 6.68342 15.0976 6.29289 14.7071C5.90237 14.3166 5.90237 13.6834 6.29289 13.2929L11.2929 8.29289C11.6834 7.90237 12.3166 7.90237 12.7071 8.29289L17.7071 13.2929C18.0976 13.6834 18.0976 14.3166 17.7071 14.7071C17.3166 15.0976 16.6834 15.0976 16.2929 14.7071L12 10.4142Z" fill="#00B7FF"/>
  </symbol>
  <symbol id="btn-cross" viewBox="0 0 26 26" width="26" height="26">
    <path d="M1.5 13C1.5 6.64873 6.64873 1.5 13 1.5C19.3513 1.5 24.5 6.64873 24.5 13C24.5 19.3513 19.3513 24.5 13 24.5C6.64873 24.5 1.5 19.3513 1.5 13Z" fill="white" stroke="#F0F0F0"/>
    <path fill-rule="evenodd" clip-rule="evenodd" d="M13.0015 11.9898L16.5371 8.45431C16.816 8.17537 17.2683 8.17537 17.5472 8.45431C17.8262 8.73326 17.8262 9.18552 17.5472 9.46447L14.0117 13L17.5472 16.5355C17.8262 16.8145 17.8262 17.2667 17.5472 17.5457C17.2683 17.8246 16.816 17.8246 16.5371 17.5457L13.0015 14.0102L9.466 17.5457C9.18705 17.8246 8.73479 17.8246 8.45584 17.5457C8.1769 17.2667 8.1769 16.8145 8.45584 16.5355L11.9914 13L8.45584 9.46447C8.1769 9.18552 8.1769 8.73326 8.45584 8.45431C8.73479 8.17537 9.18705 8.17537 9.466 8.45431L13.0015 11.9898Z" fill="#00B7FF"/>
  </symbol>
  <symbol id="btn-expand-h" viewBox="0 0 24 24" width="24" height="24">
    <path d="M12 23.5C5.64873 23.5 0.5 18.3513 0.5 12C0.5 5.64873 5.64873 0.5 12 0.5C18.3513 0.5 23.5 5.64873 23.5 12C23.5 18.3513 18.3513 23.5 12 23.5Z" fill="white" stroke="#F0F0F0"/>
    <path fill-rule="evenodd" clip-rule="evenodd" d="M13.5858 12L9.29289 7.70711C8.90237 7.31658 8.90237 6.68342 9.29289 6.29289C9.68342 5.90237 10.3166 5.90237 10.7071 6.29289L15.7071 11.2929C16.0976 11.6834 16.0976 12.3166 15.7071 12.7071L10.7071 17.7071C10.3166 18.0976 9.68342 18.0976 9.29289 17.7071C8.90237 17.3166 8.90237 16.6834 9.29289 16.2929L13.5858 12Z" fill="#00B7FF"/>
  </symbol>
  <symbol id="btn-expand-v" viewBox="0 0 24 24" width="24" height="24">
    <path fill-rule="evenodd" clip-rule="evenodd" d="M12 13.5858L16.2929 9.29289C16.6834 8.90237 17.3166 8.90237 17.7071 9.29289C18.0976 9.68342 18.0976 10.3166 17.7071 10.7071L12.7071 15.7071C12.3166 16.0976 11.6834 16.0976 11.2929 15.7071L6.29289 10.7071C5.90237 10.3166 5.90237 9.68342 6.29289 9.29289C6.68342 8.90237 7.31658 8.90237 7.70711 9.29289L12 13.5858Z" fill="#00B7FF"/>
  </symbol>
  <symbol id="calendar" viewBox="0 0 24 24" width="24" height="24">
    <path fill-rule="evenodd" clip-rule="evenodd" d="M15.2 4V3C15.2 2.44772 15.6477 2 16.2 2C16.7523 2 17.2 2.44772 17.2 3V4.00491C19.3162 4.10912 21 5.85793 21 8V17C21 19.2091 19.2091 21 17 21H7C4.79086 21 3 19.2091 3 17V8C3 5.79086 4.79086 4 7 4H7.2V3C7.2 2.44772 7.64772 2 8.2 2C8.75228 2 9.2 2.44772 9.2 3V4H11.2V3C11.2 2.44772 11.6477 2 12.2 2C12.7523 2 13.2 2.44772 13.2 3V4H15.2ZM15.2 6H13.2C13.2 6.55228 12.7523 7 12.2 7C11.6477 7 11.2 6.55228 11.2 6H9.2C9.2 6.55228 8.75229 7 8.2 7C7.64772 7 7.2 6.55228 7.2 6H7C5.89543 6 5 6.89543 5 8V17C5 18.1046 5.89543 19 7 19H17C18.1046 19 19 18.1046 19 17V8C19 6.96291 18.2106 6.11019 17.2 6.00987C17.1947 6.55761 16.749 7 16.2 7C15.6477 7 15.2 6.55228 15.2 6ZM9 12C8.44772 12 8 11.5523 8 11C8 10.4477 8.44772 10 9 10H16C16.5523 10 17 10.4477 17 11C17 11.5523 16.5523 12 16 12H9ZM9 16C8.44772 16 8 15.5523 8 15C8 14.4477 8.44772 14 9 14H14C14.5523 14 15 14.4477 15 15C15 15.5523 14.5523 16 14 16H9Z"/>
  </symbol>
  <symbol id="checkbox" viewBox="0 0 21 22" width="21" height="22">
    <path fill-rule="evenodd" clip-rule="evenodd" d="M6.61292 0H14.1705C17.8228 0 20.7835 3.13401 20.7835 7V15C20.7835 18.866 17.8228 22 14.1705 22H6.61292C2.96071 22 0 18.866 0 15V7C0 3.13401 2.96071 0 6.61292 0ZM6.61292 2C4.0042 2 1.88941 4.23858 1.88941 7V15C1.88941 17.7614 4.0042 20 6.61292 20H14.1705C16.7793 20 18.8941 17.7614 18.8941 15V7C18.8941 4.23858 16.7793 2 14.1705 2H6.61292ZM7.26636 10.2784L9.41188 12.5203L13.4316 7.36355C13.7637 6.93756 14.3591 6.87718 14.7616 7.22868C15.164 7.58018 15.221 8.21046 14.889 8.63645L10.2119 14.6364C9.85873 15.0895 9.21447 15.1243 8.81956 14.7117L5.93903 11.7018C5.56772 11.3138 5.56384 10.6806 5.93038 10.2876C6.29691 9.89453 6.89505 9.89043 7.26636 10.2784Z"/>
  </symbol>
  <symbol id="chevron/down" viewBox="0 0 6.35 6.35" width="24" height="24">
    <g xmlns="http://www.w3.org/2000/svg" transform="matrix(.26458 0 0 .26458 3.2523e-6 -.13229)">
      <path d="m12 13.586 4.2929-4.2929c0.3905-0.39052 1.0237-0.39052 1.4142 0 0.3905 0.39053 0.3905 1.0237 0 1.4142l-5 5c-0.3905 0.3905-1.0237 0.3905-1.4142 0l-5-5c-0.39052-0.3905-0.39052-1.0237 0-1.4142 0.39053-0.39052 1.0237-0.39052 1.4142 0z" clip-rule="evenodd" fill-rule="evenodd"/>
    </g>
  </symbol>
  <symbol id="chevron/left" viewBox="0 0 6.35 6.35" width="24" height="24">
    <g xmlns="http://www.w3.org/2000/svg" transform="matrix(.26458 0 0 .26458 .13229 3.2523e-6)">
      <path d="m10.414 12 4.2929 4.2929c0.3905 0.3905 0.3905 1.0237 0 1.4142s-1.0237 0.3905-1.4142 0l-5-5c-0.39052-0.3905-0.39052-1.0237 0-1.4142l5-5c0.3905-0.39052 1.0237-0.39052 1.4142 0 0.3905 0.39053 0.3905 1.0237 0 1.4142z" clip-rule="evenodd" fill-rule="evenodd"/>
    </g>
  </symbol>
  <symbol id="chevron/right" viewBox="0 0 6.35 6.35" width="24" height="24">
    <g xmlns="http://www.w3.org/2000/svg" transform="matrix(.26458 0 0 .26458 -.13229 3.2523e-6)" style="">
      <path d="m13.586 12-4.2929-4.2929c-0.39052-0.39053-0.39052-1.0237 0-1.4142 0.39053-0.39052 1.0237-0.39052 1.4142 0l5 5c0.3905 0.3905 0.3905 1.0237 0 1.4142l-5 5c-0.3905 0.3905-1.0237 0.3905-1.4142 0-0.39052-0.3905-0.39052-1.0237 0-1.4142z" clip-rule="evenodd" fill-rule="evenodd"/>
    </g>
  </symbol>
  <symbol id="chevron/up" viewBox="0 0 6.35 6.35" width="24" height="24">
    <path d="m3.175 2.8877-1.1358 1.1358c-0.10333 0.10332-0.27085 0.10332-0.37418 0-0.10333-0.10332-0.10333-0.27085 0-0.37417l1.3229-1.3229c0.10332-0.10333 0.27085-0.10333 0.37417 0l1.3229 1.3229c0.10332 0.10332 0.10332 0.27085 0 0.37417s-0.27085 0.10332-0.37417 0z" clip-rule="evenodd" fill-rule="evenodd" stroke-width=".26458"/>
  </symbol>

  <symbol id="date" height="19" viewBox="0 0 19 19" fill="#00B7FF" xmlns="http://www.w3.org/2000/svg">
    <path fill-rule="evenodd" clip-rule="evenodd" d="M12.7 2V1C12.7 0.447715 13.1477 0 13.7 0C14.2523 0 14.7 0.447715 14.7 1V2.00491C16.8162 2.10912 18.5 3.85793 18.5 6V15C18.5 17.2091 16.7091 19 14.5 19H4.5C2.29086 19 0.5 17.2091 0.5 15V6C0.5 3.79086 2.29086 2 4.5 2H4.7V1C4.7 0.447715 5.14772 0 5.7 0C6.25228 0 6.7 0.447715 6.7 1V2H8.7V1C8.7 0.447715 9.14771 0 9.7 0C10.2523 0 10.7 0.447715 10.7 1V2H12.7ZM12.7 4H10.7C10.7 4.55228 10.2523 5 9.7 5C9.14771 5 8.7 4.55228 8.7 4H6.7C6.7 4.55228 6.25229 5 5.7 5C5.14772 5 4.7 4.55228 4.7 4H4.5C3.39543 4 2.5 4.89543 2.5 6V15C2.5 16.1046 3.39543 17 4.5 17H14.5C15.6046 17 16.5 16.1046 16.5 15V6C16.5 4.96291 15.7106 4.11019 14.7 4.00987C14.6947 4.55761 14.249 5 13.7 5C13.1477 5 12.7 4.55228 12.7 4ZM6.5 10C5.94772 10 5.5 9.55229 5.5 9C5.5 8.44771 5.94772 8 6.5 8H13.5C14.0523 8 14.5 8.44771 14.5 9C14.5 9.55229 14.0523 10 13.5 10H6.5ZM6.5 14C5.94772 14 5.5 13.5523 5.5 13C5.5 12.4477 5.94772 12 6.5 12H11.5C12.0523 12 12.5 12.4477 12.5 13C12.5 13.5523 12.0523 14 11.5 14H6.5Z" fill="#00B7FF"/>
  </symbol>

  <symbol id="chevron/down-fill" width="20" height="20" viewBox="0 0 20 20" fill="none" xmlns="http://www.w3.org/2000/svg">
    <path d="M0.416667 10C0.416667 4.70727 4.70727 0.416667 10 0.416667C15.2927 0.416667 19.5833 4.70727 19.5833 10C19.5833 15.2927 15.2927 19.5833 10 19.5833C4.70727 19.5833 0.416667 15.2927 0.416667 10Z" fill="#00B7FF" stroke="#F0F0F0" stroke-width="0.833333"/>
    <path fill-rule="evenodd" clip-rule="evenodd" d="M10 11.3215L13.5774 7.74408C13.9028 7.41864 14.4305 7.41864 14.7559 7.74408C15.0814 8.06951 15.0814 8.59715 14.7559 8.92259L10.5893 13.0893C10.2638 13.4147 9.73618 13.4147 9.41074 13.0893L5.24408 8.92259C4.91864 8.59715 4.91864 8.06951 5.24408 7.74408C5.56951 7.41864 6.09715 7.41864 6.42259 7.74408L10 11.3215Z" fill="white"/>
  </symbol>


  <symbol id="clip" viewBox="0 0 16 18" width="16" height="18">
    <path fill-rule="evenodd" clip-rule="evenodd" d="M1.71391 7.79446L8.23917 1.2692C9.93144 -0.423068 12.6752 -0.423068 14.3674 1.2692C16.0597 2.96148 16.0597 5.70519 14.3674 7.39746L7.84217 13.9227C6.79726 14.9205 5.14126 14.9062 4.11438 13.8793C3.07298 12.8379 3.07298 11.1494 4.11438 10.108L10.5962 3.62623C10.9867 3.2357 11.6199 3.2357 12.0104 3.62623C12.4009 4.01675 12.4009 4.64992 12.0104 5.04044L5.5286 11.5223C5.26825 11.7826 5.26825 12.2047 5.5286 12.4651C5.78895 12.7254 6.21105 12.7254 6.4714 12.4651L12.9532 5.98325C13.8644 5.07203 13.8644 3.59464 12.9532 2.68342C12.042 1.77219 10.5646 1.77219 9.65339 2.68342L3.17157 9.16523C1.60948 10.7273 1.60948 13.26 3.17157 14.8221C4.73367 16.3842 7.26633 16.3842 8.82843 14.8221L14.1317 9.51878C14.5223 9.12826 15.1554 9.12826 15.5459 9.51878C15.9365 9.90931 15.9365 10.5425 15.5459 10.933L10.2426 16.2363C7.89949 18.5794 4.1005 18.5794 1.75736 16.2363C-0.571287 13.9077 -0.585697 10.1411 1.71413 7.79468L1.71391 7.79446Z" fill="#92929D"/>
  </symbol>
  <symbol id="cog" viewBox="0 0 6.35 6.35" width="24" height="24">
    <g xmlns="http://www.w3.org/2000/svg" transform="matrix(.26458 0 0 .26458 -5.3362e-6 -5.5e-8)" style="">
      <path d="m9.0943 3.3391c0.28928-1.3632 1.5015-2.3391 2.9057-2.3391s2.6164 0.97584 2.9057 2.3391l0.0563 0.2655c1.0567 0.36644 2.0369 0.92561 2.8877 1.652l0.2577-0.08362c1.3346-0.43307 2.7926 0.12055 3.4947 1.327s0.4564 2.7359-0.589 3.6661l-0.2018 0.1796c0.2087 1.0942 0.2067 2.216-0.0018 3.3071l0.2036 0.1811c1.0454 0.9302 1.2911 2.4596 0.589 3.6661s-2.1601 1.7601-3.4947 1.327l-0.2585-0.0839c-0.4213 0.359-0.8779 0.6803-1.3662 0.96-0.4882 0.2796-0.997 0.5113-1.521 0.6938l-0.056 0.264c-0.2893 1.3633-1.5015 2.3391-2.9057 2.3391s-2.6164-0.9758-2.9057-2.3391l-0.05634-0.2655c-1.0567-0.3664-2.0369-0.9256-2.8876-1.652l-0.2577 0.0836c-1.3346 0.4331-2.7926-0.1205-3.4947-1.327s-0.45639-2.7359 0.58895-3.6661l0.20185-0.1796c-0.20872-1.0942-0.20672-2.216 0.00174-3.3071l-0.20359-0.1811c-1.0453-0.93017-1.291-2.4596-0.58895-3.6661s2.16-1.7601 3.4947-1.327l0.2585 0.08388c0.42126-0.35894 0.87789-0.68026 1.3662-0.95993s0.99706-0.51134 1.521-0.69382zm2.9057-0.33907c-0.4509 0-0.8402 0.31335-0.933 0.75109l-0.1777 0.83725c-0.0778 0.36672-0.3558 0.6595-0.7201 0.75848-0.57009 0.15487-1.1214 0.38284-1.644 0.68216s-0.99723 0.65904-1.4174 1.0714c-0.26857 0.26354-0.66312 0.35598-1.0222 0.23948l-0.81967-0.26598c-0.42856-0.13906-0.89671 0.03872-1.1222 0.42612s-0.14655 0.87852 0.18912 1.1772l0.64364 0.57273c0.28136 0.25036 0.39791 0.63585 0.30188 0.99847-0.30385 1.1476-0.30707 2.3545-0.00185 3.504 0.09635 0.3628-0.02015 0.7486-0.3017 0.9992l-0.64197 0.5712c-0.33567 0.2987-0.41457 0.7898-0.18912 1.1772s0.6936 0.5652 1.1222 0.4261l0.81962-0.2659c0.35947-0.1167 0.7545-0.0239 1.0231 0.2403 0.85078 0.837 1.9059 1.4377 3.0596 1.7504 0.3646 0.0988 0.6428 0.3917 0.7206 0.7586l0.1782 0.8394c0.0928 0.4378 0.4821 0.7511 0.933 0.7511s0.8402-0.3133 0.933-0.7511l0.1777-0.8372c0.0778-0.3668 0.3558-0.6595 0.7201-0.7585 0.5701-0.1549 1.1214-0.3829 1.644-0.6822s0.9972-0.659 1.4174-1.0714c0.2686-0.2635 0.6632-0.356 1.0222-0.2395l0.8197 0.266c0.4285 0.1391 0.8967-0.0387 1.1221-0.4261 0.2255-0.3874 0.1466-0.8785-0.1891-1.1772l-0.6436-0.5727c-0.2814-0.2504-0.3979-0.6359-0.3019-0.9985 0.3038-1.1476 0.3071-2.3545 0.0018-3.504-0.0963-0.36281 0.0202-0.74863 0.3017-0.99916l0.642-0.57124c0.3357-0.29868 0.4146-0.7898 0.1891-1.1772-0.2254-0.3874-0.6936-0.56518-1.1221-0.42612l-0.8197 0.26596c-0.3594 0.11665-0.7545 0.02383-1.023-0.24037-0.8508-0.83697-1.9059-1.4377-3.0596-1.7504-0.3646-0.09883-0.6428-0.39171-0.7206-0.75864l-0.1782-0.83937c-0.0928-0.43774-0.4821-0.75109-0.933-0.75109zm0 12.632c2.0216 0 3.6605-1.6259 3.6605-3.6316 0-2.0057-1.6389-3.6316-3.6605-3.6316-2.0216 0-3.6605 1.6259-3.6605 3.6316 0 2.0057 1.6388 3.6316 3.6605 3.6316zm0-2c-0.9083 0-1.6446-0.7305-1.6446-1.6316s0.7363-1.6316 1.6446-1.6316 1.6446 0.7305 1.6446 1.6316-0.7363 1.6316-1.6446 1.6316z" clip-rule="evenodd" fill-rule="evenodd"/>
    </g>
  </symbol>
  <symbol id="comment" viewBox="0 0 6.3499999 6.3500002" width="24" height="24">
    <g xmlns="http://www.w3.org/2000/svg" transform="translate(0,-290.64998)" id="layer1">
    <g transform="matrix(0.26458333,0,0,0.26458333,-0.93689486,291.87992)" id="g3737" style="fill-opacity:1">
      <g transform="translate(5.9103126,-6.2179777)" id="g4836" style="fill-opacity:1">
        <path style="clip-rule:evenodd;fill-rule:evenodd;fill-opacity:1" d="m 10.118947,19.06333 -4.2260597,3.2307 c -0.95641,0.7312 -2.33264,0.0482 -2.33462,-1.154 l -0.00363,-2.2002 C 1.5869474,18.46663 0.13070736,16.68993 0.13070736,14.57933 V 9.0274999 c 0,-2.47566 2.00073994,-4.484051 4.47058994,-4.484051 H 14.660108 c 2.4699,0 4.4706,2.008391 4.4706,4.484051 V 14.57933 c 0,2.4756 -2.0007,4.484 -4.4706,4.484 z m -4.6621697,1.1724 3.76368,-2.8772 c 0.16567,-0.1267 0.36842,-0.1953 0.57696,-0.1953 h 4.8626907 c 1.4189,0 2.5706,-1.1561 2.5706,-2.584 V 9.0273999 c 0,-1.42794 -1.1517,-2.58405 -2.5706,-2.58405 H 4.6012973 c -1.41889,0 -2.57059,1.15611 -2.57059,2.58405 V 14.57923 c 0,1.401 1.11061,2.5449 2.49863,2.583 0.51372,0.0141 0.92309,0.4342 0.92394,0.9481 z" id="path4825"/>
      </g>
    </g>
  </g>
  </symbol>
  <symbol id="delete" viewBox="0 0 20 20" width="20" height="20">
    <path fill-rule="evenodd" clip-rule="evenodd" d="M6.66536 0.833984H13.332C16.5537 0.833984 19.1654 3.44566 19.1654 6.66732V13.334C19.1654 16.5556 16.5537 19.1673 13.332 19.1673H6.66536C3.4437 19.1673 0.832031 16.5556 0.832031 13.334V6.66732C0.832031 3.44566 3.4437 0.833984 6.66536 0.833984ZM6.66536 2.50065C4.36418 2.50065 2.4987 4.36613 2.4987 6.66732V13.334C2.4987 15.6352 4.36418 17.5007 6.66536 17.5007H13.332C15.6332 17.5007 17.4987 15.6352 17.4987 13.334V6.66732C17.4987 4.36613 15.6332 2.50065 13.332 2.50065H6.66536ZM6.90944 8.08991L8.67721 9.85767L6.90944 11.6254C6.58401 11.9509 6.58401 12.4785 6.90944 12.804C7.23488 13.1294 7.76252 13.1294 8.08795 12.804L9.85572 11.0362L11.6235 12.804C11.9489 13.1294 12.4766 13.1294 12.802 12.804C13.1274 12.4785 13.1274 11.9509 12.802 11.6254L11.0342 9.85767L12.802 8.08991C13.1274 7.76447 13.1274 7.23683 12.802 6.9114C12.4766 6.58596 11.9489 6.58596 11.6235 6.9114L9.85572 8.67916L8.08795 6.9114C7.76252 6.58596 7.23488 6.58596 6.90944 6.9114C6.58401 7.23683 6.58401 7.76447 6.90944 8.08991Z" fill="#B5B5BE"/>
  </symbol>
  <symbol id="do-not-show" viewBox="0 0 20 20" width="20" height="20">
    <path fill-rule="evenodd" clip-rule="evenodd" d="M18.1061 1.88554C17.8059 1.59183 17.3236 1.59449 17.0267 1.89152L13.973 4.94682C12.757 4.29571 11.4058 3.93967 10.0013 3.93967C6.47997 3.93967 3.29386 6.1776 1.73314 9.69287C1.64624 9.8886 1.64624 10.112 1.73314 10.3077C2.43811 11.8955 3.4747 13.2227 4.72402 14.2008L1.89052 17.0358C1.59143 17.3351 1.59416 17.8192 1.89655 18.1151C2.19671 18.4088 2.67905 18.4062 2.97591 18.1091L6.02964 15.0538C7.24562 15.7049 8.5968 16.0609 10.0013 16.0609C13.5226 16.0609 16.7087 13.823 18.2695 10.3077C18.3564 10.112 18.3564 9.8886 18.2695 9.69287C17.5645 8.10506 16.5279 6.77786 15.2786 5.79979L18.1121 2.96481C18.4112 2.66557 18.4084 2.18144 18.1061 1.88554ZM12.8428 6.07763C11.9531 5.67244 10.9916 5.4548 10.0013 5.4548C7.1993 5.4548 4.62752 7.19728 3.26105 10.0003C3.88714 11.2845 4.76628 12.3462 5.80465 13.1196L7.38805 11.5353C7.12302 11.0851 6.971 10.5604 6.971 10.0002C6.971 8.32663 8.32771 6.96992 10.0013 6.96992C10.5609 6.96992 11.0851 7.12162 11.535 7.38615L12.8428 6.07763ZM12.6146 8.46523L14.198 6.88098C15.2364 7.65439 16.1155 8.71601 16.7415 10.0003C15.3751 12.8032 12.8033 14.5457 10.0013 14.5457C9.01106 14.5457 8.04957 14.3281 7.15987 13.9229L8.46772 12.6144C8.91758 12.8789 9.44173 13.0305 10.0013 13.0305C11.6749 13.0305 13.0316 11.6738 13.0316 10.0002C13.0316 9.44006 12.8796 8.9154 12.6146 8.46523ZM10.387 8.53474C10.2639 8.50242 10.1346 8.4852 10.0013 8.4852C9.16452 8.4852 8.48616 9.16356 8.48616 10.0004C8.48616 10.1339 8.50345 10.2635 8.5359 10.3869L10.387 8.53474ZM9.61552 11.466L11.4667 9.61378C11.4992 9.73719 11.5165 9.86675 11.5165 10.0004C11.5165 10.8372 10.8381 11.5155 10.0013 11.5155C9.86799 11.5155 9.7387 11.4983 9.61552 11.466Z"/>
  </symbol>
  <symbol id="drafts" viewBox="0 0 16 20" width="16" height="20">
    <path fill-rule="evenodd" clip-rule="evenodd" d="M8.53396 0H4C1.79086 0 0 1.79086 0 4V16C0 18.2091 1.79086 20 4 20H12C14.2091 20 16 18.2091 16 16V8.42307V7.4V6.75425C16 6.29587 15.8425 5.8514 15.554 5.49524L11.7022 0.740983C11.3224 0.272273 10.7514 0 10.1482 0H9.625H8.53396ZM11.625 3.82283V5.4H12.9028L11.625 3.82283ZM4 2C2.89543 2 2 2.89543 2 4V16C2 17.1046 2.89543 18 4 18H12C13.1046 18 14 17.1046 14 16V7.4H11.625C10.5204 7.4 9.625 6.50457 9.625 5.4V2H4ZM9 12.5L9.4 12.2C9.84183 11.8686 10.4686 11.9582 10.8 12.4C11.1314 12.8418 11.0418 13.4686 10.6 13.8L8.60808 15.2939C8.43959 15.4232 8.22876 15.5 8 15.5C7.77124 15.5 7.56041 15.4232 7.39192 15.2939L5.4 13.8C4.95817 13.4686 4.86863 12.8418 5.2 12.4C5.53137 11.9582 6.15817 11.8686 6.6 12.2L7 12.5V8.61139C7 8.05911 7.44772 7.61139 8 7.61139C8.55229 7.61139 9 8.05911 9 8.61139V12.5Z" fill="#92929D"/>
  </symbol>
  <symbol id="dropdown" viewBox="0 0 14 9" width="14" height="9">
    <path fill-rule="evenodd" clip-rule="evenodd" d="M12.7917 0C13.0414 0 13.1818 0.28719 13.0285 0.484237L7.23646 7.92754C7.11635 8.08189 6.88304 8.08189 6.76293 7.92754L0.970921 0.484237C0.817588 0.287189 0.958007 0 1.20768 0L12.7917 0Z"/>
  </symbol>
  <symbol id="edit-new" viewBox="0 0 20 20" width="20" height="20">
    <path fill-rule="evenodd" clip-rule="evenodd" d="M16.9574 5.90722C16.9574 5.35632 17.404 4.90973 17.9549 4.90973C18.5058 4.90973 18.9524 5.35632 18.9524 5.90722V15.823C18.9524 18.1299 17.0823 20 14.7754 20H4.177C1.87011 20 0 18.1299 0 15.823V5.22463C0 2.91773 1.87011 1.04762 4.177 1.04762H13.7779C14.3288 1.04762 14.7754 1.49422 14.7754 2.04512C14.7754 2.59602 14.3288 3.04261 13.7779 3.04261H4.177C2.97191 3.04261 1.99499 4.01953 1.99499 5.22463V15.823C1.99499 17.0281 2.97191 18.005 4.177 18.005H14.7754C15.9805 18.005 16.9574 17.0281 16.9574 15.823V5.90722ZM17.8376 0.309616C18.2175 -0.0893369 18.8489 -0.104778 19.2478 0.275128C19.6468 0.655034 19.6622 1.28642 19.2823 1.68538L9.73183 11.7147C9.35193 12.1137 8.72054 12.1291 8.32159 11.7492C7.92263 11.3693 7.90719 10.7379 8.2871 10.3389L17.8376 0.309616Z" fill="#92929D"/>
  </symbol>
  <symbol id="edit" viewBox="0 0 20 20" width="20" height="20">
    <path fill-rule="evenodd" clip-rule="evenodd" d="M14.8845 6.3305L15.8134 5.40154L13.7659 3.35399L12.8369 4.28295L14.8845 6.3305ZM13.7121 7.50283L11.6645 5.45528L4.00495 13.1148L3.53369 15.6337L6.0525 15.1624L13.7121 7.50283ZM17.0352 4.27865C17.6554 4.89875 17.6554 5.90414 17.0352 6.52425L7.04344 16.5161C6.92524 16.6343 6.77405 16.714 6.60973 16.7447L2.64879 17.4858C2.07602 17.593 1.57437 17.0913 1.68153 16.5185L2.42261 12.5576C2.45335 12.3933 2.53306 12.2421 2.65126 12.1239L12.6431 2.13207C13.2632 1.51197 14.2686 1.51197 14.8887 2.13207L17.0352 4.27865ZM16.6752 17.5005H9.99208C8.89197 17.5005 8.89197 15.8338 9.99208 15.8338H16.6752C17.7754 15.8338 17.7754 17.5005 16.6752 17.5005Z"/>
  </symbol>
  <symbol id="geo" viewBox="0 0 19 23" width="19" height="23">
    <path fill-rule="evenodd" clip-rule="evenodd" d="M0.125 10.0912C0.125 4.98444 4.32611 0.851562 9.5 0.851562C14.6739 0.851562 18.875 4.98444 18.875 10.0912C18.875 12.6137 17.8431 14.9762 16.0573 16.6946L10.2306 22.4274C9.82519 22.8263 9.17488 22.8263 8.76949 22.4275L2.93474 16.6874C1.15046 14.9619 0.125 12.6059 0.125 10.0912ZM14.6045 15.2015C15.9955 13.863 16.7917 12.04 16.7917 10.0912C16.7917 6.14274 13.5309 2.9349 9.5 2.9349C5.46914 2.9349 2.20833 6.14274 2.20833 10.0912C2.20833 12.034 2.99962 13.852 4.3894 15.1961L9.49996 20.2236L14.6045 15.2015ZM9.5 14.3932C11.8012 14.3932 13.6667 12.5277 13.6667 10.2266C13.6667 7.92538 11.8012 6.0599 9.5 6.0599C7.19881 6.0599 5.33333 7.92538 5.33333 10.2266C5.33333 12.5277 7.19881 14.3932 9.5 14.3932ZM9.5 12.3099C8.34941 12.3099 7.41667 11.3772 7.41667 10.2266C7.41667 9.07597 8.34941 8.14323 9.5 8.14323C10.6506 8.14323 11.5833 9.07597 11.5833 10.2266C11.5833 11.3772 10.6506 12.3099 9.5 12.3099Z" fill="#00B7FF"/>
  </symbol>
  <symbol id="globe" viewBox="0 0 24 24" width="24" height="24">
    <path fill-rule="evenodd" clip-rule="evenodd" d="M13.0377 7.9746V11H15.9738C15.9113 9.81198 15.7393 8.69949 15.4857 7.70394C14.6997 7.8418 13.8791 7.93323 13.0377 7.9746ZM11.0377 7.97817C10.1699 7.93864 9.32374 7.84591 8.51427 7.70393C8.26072 8.69949 8.08873 9.81198 8.02618 11H11.0377V7.97817V7.97817ZM13.0377 15.4187C13.9278 15.4625 14.7945 15.5622 15.6218 15.7138C15.8009 14.8733 15.9232 13.9614 15.9738 13H13.0377V15.4187ZM11.0377 15.4151V13H8.02618C8.07679 13.9614 8.19908 14.8733 8.37825 15.7138C9.22878 15.558 10.1211 15.4569 11.0377 15.4151V15.4151ZM13.0377 17.4214V20.6577C13.8152 20.1441 14.5325 19.0794 15.0665 17.6465C14.4167 17.5357 13.7369 17.4595 13.0377 17.4214ZM11.0377 17.4175C10.3119 17.4541 9.60657 17.5317 8.9335 17.6465C9.48472 19.1257 10.2313 20.2124 11.0377 20.7056V17.4175ZM13.0377 5.9719C13.6548 5.9383 14.2568 5.87502 14.8364 5.78441C14.3343 4.63851 13.7084 3.78536 13.0377 3.34233V5.9719ZM11.0377 5.97585V3.29436C10.3386 3.72198 9.68444 4.59567 9.16358 5.7844C9.76672 5.87869 10.3942 5.9434 11.0377 5.97585ZM3.05493 11H6.02331C6.08564 9.66991 6.27155 8.40289 6.56376 7.24514C5.94076 7.05779 5.35285 6.83766 4.80902 6.58714C3.86225 7.84293 3.23682 9.35463 3.05493 11ZM3.05493 13C3.21544 14.452 3.72139 15.8 4.48877 16.9598C5.08216 16.6635 5.73396 16.4053 6.43124 16.1887C6.21501 15.1884 6.07562 14.1164 6.02331 13H3.05493ZM20.9451 11C20.7632 9.35462 20.1377 7.84293 19.191 6.58713C18.6471 6.83767 18.0592 7.05779 17.4362 7.24514C17.7284 8.40289 17.9144 9.66991 17.9767 11H20.9451ZM20.9451 13H17.9767C17.9244 14.1164 17.785 15.1884 17.5688 16.1887C18.266 16.4053 18.9178 16.6635 19.5112 16.9598C20.2786 15.8 20.7846 14.452 20.9451 13ZM7.8023 19.9632C7.48915 19.406 7.21136 18.7858 6.97333 18.1143C6.56714 18.2423 6.18177 18.3859 5.82103 18.5438C6.41161 19.1016 7.07768 19.5804 7.8023 19.9632ZM16.1977 19.9632C16.9223 19.5804 17.5884 19.1016 18.1789 18.5438C17.8182 18.3859 17.4328 18.2423 17.0267 18.1143C16.7886 18.7858 16.5108 19.406 16.1977 19.9632ZM7.8023 4.03684C7.26398 4.3212 6.75798 4.65854 6.29124 5.04193C6.57499 5.15037 6.87152 5.25058 7.17926 5.34205C7.36728 4.87688 7.57552 4.44033 7.8023 4.03684ZM16.1977 4.03684C16.4245 4.44033 16.6327 4.87688 16.8207 5.34204C17.1284 5.25057 17.425 5.15036 17.7087 5.04191C17.242 4.65853 16.736 4.32119 16.1977 4.03684ZM12 23C5.92487 23 1 18.0751 1 12C1 5.92487 5.92487 1 12 1C18.0751 1 23 5.92487 23 12C23 18.0751 18.0751 23 12 23Z"/>
  </symbol>
  <symbol id="group" viewBox="0 0 22 22" width="24" height="24">
    <path fill-rule="evenodd" clip-rule="evenodd" d="M11 6C9.34315 6 8 4.65685 8 3C8 1.34315 9.34315 0 11 0C12.6569 0 14 1.34315 14 3C14 4.65685 12.6569 6 11 6ZM11 4C11.5523 4 12 3.55228 12 3C12 2.44772 11.5523 2 11 2C10.4477 2 10 2.44772 10 3C10 3.55228 10.4477 4 11 4ZM10 6H12C13.6569 6 15 7.34315 15 9V10C15 11.6569 13.6569 13 12 13H10C8.34315 13 7 11.6569 7 10V9C7 7.34315 8.34315 6 10 6ZM10 8C9.44771 8 9 8.44771 9 9V10C9 10.5523 9.44771 11 10 11H12C12.5523 11 13 10.5523 13 10V9C13 8.44771 12.5523 8 12 8H10ZM18 15C16.3431 15 15 13.6569 15 12C15 10.3431 16.3431 9 18 9C19.6569 9 21 10.3431 21 12C21 13.6569 19.6569 15 18 15ZM18 13C18.5523 13 19 12.5523 19 12C19 11.4477 18.5523 11 18 11C17.4477 11 17 11.4477 17 12C17 12.5523 17.4477 13 18 13ZM17 15H19C20.6569 15 22 16.3431 22 18V19C22 20.6569 20.6569 22 19 22H17C15.3431 22 14 20.6569 14 19V18C14 16.3431 15.3431 15 17 15ZM17 17C16.4477 17 16 17.4477 16 18V19C16 19.5523 16.4477 20 17 20H19C19.5523 20 20 19.5523 20 19V18C20 17.4477 19.5523 17 19 17H17ZM4 15C2.34315 15 1 13.6569 1 12C1 10.3431 2.34315 9 4 9C5.65685 9 7 10.3431 7 12C7 13.6569 5.65685 15 4 15ZM4 13C4.55228 13 5 12.5523 5 12C5 11.4477 4.55228 11 4 11C3.44772 11 3 11.4477 3 12C3 12.5523 3.44772 13 4 13ZM3 15H5C6.65685 15 8 16.3431 8 18V19C8 20.6569 6.65685 22 5 22H3C1.34315 22 0 20.6569 0 19V18C0 16.3431 1.34315 15 3 15ZM3 17C2.44772 17 2 17.4477 2 18V19C2 19.5523 2.44772 20 3 20H5C5.55228 20 6 19.5523 6 19V18C6 17.4477 5.55228 17 5 17H3Z"/>
  </symbol>
  <symbol id="hash" viewBox="0 0 14 18" width="24" height="24">
    <path d="M7.96484 13.1953H4.87109L3.93359 18H2.25781L3.19531 13.1953H0.394531V11.5898H3.5L4.30859 7.44141H1.28516V5.8125H4.625L5.58594 0.9375H7.26172L6.30078 5.8125H9.39453L10.3555 0.9375H12.043L11.082 5.8125H13.4727V7.44141H10.7656L9.95703 11.5898H12.5938V13.1953H9.65234L8.71484 18H7.02734L7.96484 13.1953ZM5.17578 11.5898H8.26953L9.07812 7.44141H5.98438L5.17578 11.5898Z" fill="#92929D"/>
  </symbol>
  <symbol id="hot" viewBox="0 0 7.9375 7.9375" width="30" height="30">
    <g xmlns="http://www.w3.org/2000/svg" transform="matrix(.26458 0 0 .26458 .82682 .66942)" fill="none">
      <path d="m12.485 19.337-5.2826 4.0383c-1.1955 0.914-2.9158 0.0603-2.9183-1.4424l-0.00454-2.7503c-2.4596-0.5915-4.2799-2.8123-4.2799-5.4507v-6.9397c0-3.0946 2.5009-5.6051 5.5882-5.6051h12.574c3.0873 0 5.5882 2.5105 5.5882 5.6051v6.9397c0 3.0946-2.5009 5.6051-5.5882 5.6051zm-5.8276 1.4656 4.7046-3.5965c0.2071-0.1584 0.4605-0.2441 0.7212-0.2441h6.0784c1.7736 0 3.2132-1.4452 3.2132-3.2301v-6.9397c0-1.7849-1.4396-3.2301-3.2132-3.2301h-12.574c-1.7736 0-3.2132 1.4451-3.2132 3.2301v6.9397c0 1.7513 1.3883 3.1812 3.1233 3.2288 0.64215 0.0177 1.1539 0.5427 1.1549 1.1851z" clip-rule="evenodd" fill="#92929d" fill-rule="evenodd"/>
    </g>
  </symbol>
  <symbol id="list" viewBox="0 0 35 35" width="35" height="35">
    <path fill-rule="evenodd" clip-rule="evenodd" d="M7.29036 8.74967H27.707C28.5124 8.74967 29.1654 8.09676 29.1654 7.29134C29.1654 6.48593 28.5124 5.83301 27.707 5.83301H7.29036C6.48495 5.83301 5.83203 6.48593 5.83203 7.29134C5.83203 8.09676 6.48495 8.74967 7.29036 8.74967ZM7.29036 29.1663H27.707C28.5124 29.1663 29.1654 28.5134 29.1654 27.708C29.1654 26.9026 28.5124 26.2497 27.707 26.2497H7.29036C6.48495 26.2497 5.83203 26.9026 5.83203 27.708C5.83203 28.5134 6.48495 29.1663 7.29036 29.1663ZM27.707 18.958H7.29036C6.48495 18.958 5.83203 18.3051 5.83203 17.4997C5.83203 16.6943 6.48495 16.0413 7.29036 16.0413H27.707C28.5124 16.0413 29.1654 16.6943 29.1654 17.4997C29.1654 18.3051 28.5124 18.958 27.707 18.958Z"/>
  </symbol>
  <symbol id="lock" viewBox="0 0 23 22" width="23" height="22">
    <path fill-rule="evenodd" clip-rule="evenodd" d="M7.13205 8.11767V6.46007C7.13205 3.91382 9.17945 1.84473 11.7113 1.84473C14.2431 1.84473 16.2905 3.91382 16.2905 6.46007V8.11767H17.5866C18.3233 8.11767 18.9088 8.72097 18.9088 9.45131V18.6312C18.9088 19.3616 18.3233 19.9649 17.5866 19.9649H5.70795C4.97124 19.9649 4.38574 19.3616 4.38574 18.6312V9.45131C4.38574 8.72097 4.97124 8.11767 5.70795 8.11767H7.13205ZM6.04012 9.76473V18.3174H17.2541V9.76473H6.04012ZM14.6356 8.09241V6.4602C14.6356 4.81825 13.3234 3.49214 11.7109 3.49214C10.0985 3.49214 8.78625 4.81825 8.78625 6.4602V8.09241H14.6356Z"/>
  </symbol>
  <symbol id="logout" viewBox="0 0 24 24" width="24" height="24">
    <path fill-rule="evenodd" clip-rule="evenodd" d="M15 15.75V17.35C15 18.2451 14.1152 19 13 19H7.5C6.38483 19 5.5 18.2451 5.5 17.35V6.15C5.5 5.25486 6.38483 4.5 7.5 4.5H13C14.1152 4.5 15 5.25486 15 6.15V7.75C15 8.16421 15.3358 8.5 15.75 8.5C16.1642 8.5 16.5 8.16421 16.5 7.75V6.15C16.5 4.39675 14.9239 3 13 3H7.5C5.57609 3 4 4.39675 4 6.15V17.35C4 19.1033 5.57609 20.5 7.5 20.5H13C14.9239 20.5 16.5 19.1033 16.5 17.35V15.75C16.5 14.75 15 14.75 15 15.75ZM9.75 12.5H16.9662L16.4197 13.0465C16.1268 13.3394 16.1268 13.8143 16.4197 14.1072C16.7126 14.4001 17.1874 14.4001 17.4803 14.1072L19.4803 12.1072C19.7718 11.8157 19.7734 11.3435 19.4839 11.0501L17.4839 9.02322C17.1929 8.72838 16.7181 8.72521 16.4232 9.01615C16.1284 9.30708 16.1252 9.78194 16.4161 10.0768L17.3271 11H9.75C9.33579 11 9 11.3358 9 11.75C9 12.1642 9.33579 12.5 9.75 12.5Z"/>
  </symbol>
  <symbol id="mail" viewBox="0 0 23 23" width="23" height="23">
    <path fill-rule="evenodd" clip-rule="evenodd" d="M4.38578 4.20996H18.9089C20.4128 4.20996 21.6319 5.42686 21.6319 6.92798V16.8941C21.6319 18.3952 20.4128 19.6121 18.9089 19.6121H4.38578C2.88187 19.6121 1.66271 18.3952 1.66271 16.8941V7.35981C1.66191 7.33786 1.66191 7.31587 1.66271 7.29387V6.92798C1.66271 5.42686 2.88187 4.20996 4.38578 4.20996ZM3.4778 9.06791V16.8939C3.4778 17.3942 3.88419 17.7999 4.38549 17.7999H18.9086C19.4099 17.7999 19.8163 17.3942 19.8163 16.8939V9.06759L13.2084 13.6845C12.2708 14.3396 11.0228 14.3396 10.0852 13.6845L3.4778 9.06791ZM19.8136 6.85762L12.1673 12.2001C11.8548 12.4184 11.4388 12.4184 11.1263 12.2001L3.48046 6.85792C3.5162 6.3902 3.90774 6.02178 4.38549 6.02178H18.9086C19.3862 6.02178 19.7777 6.39004 19.8136 6.85762Z"/>
  </symbol>
  <symbol id="messages" viewBox="0 0 17 17" width="17" height="17">
    <path fill-rule="evenodd" clip-rule="evenodd" style="fill-opacity:1;" id="path2" d="M15.4303 16.2755C15.9364 16.3879 16.3879 15.9364 16.2755 15.4303L15.498 11.9317C16.0177 10.8738 16.2923 9.70636 16.2923 8.50065C16.2923 4.19743 12.8039 0.708984 8.50065 0.708984C4.19743 0.708984 0.708984 4.19743 0.708984 8.50065C0.708984 12.8039 4.19743 16.2923 8.50065 16.2923C9.70636 16.2923 10.8738 16.0177 11.9317 15.498L15.4303 16.2755ZM14.1265 11.5021C14.0466 11.6514 14.0229 11.8244 14.0596 11.9897L14.6511 14.6511L11.9897 14.0596C11.8244 14.0229 11.6514 14.0466 11.5021 14.1265C10.5866 14.616 9.56315 14.8757 8.50065 14.8757C4.97984 14.8757 2.12565 12.0215 2.12565 8.50065C2.12565 4.97984 4.97984 2.12565 8.50065 2.12565C12.0215 2.12565 14.8757 4.97984 14.8757 8.50065C14.8757 9.56315 14.616 10.5866 14.1265 11.5021ZM6.37565 9.91732C7.15805 9.91732 7.79232 9.28305 7.79232 8.50065C7.79232 7.71825 7.15805 7.08398 6.37565 7.08398C5.59325 7.08398 4.95898 7.71825 4.95898 8.50065C4.95898 9.28305 5.59325 9.91732 6.37565 9.91732ZM12.0423 8.50065C12.0423 9.28305 11.4081 9.91732 10.6257 9.91732C9.84325 9.91732 9.20899 9.28305 9.20899 8.50065C9.20899 7.71825 9.84325 7.08398 10.6257 7.08398C11.4081 7.08398 12.0423 7.71825 12.0423 8.50065Z"/>
  </symbol>
  <symbol id="more" viewBox="0 0 24 24" width="24" height="24">
    <path fill-rule="evenodd" clip-rule="evenodd" d="M7 12C7 10.8954 6.10457 10 5 10C3.89543 10 3 10.8954 3 12C3 13.1046 3.89543 14 5 14C6.10457 14 7 13.1046 7 12ZM14 12C14 10.8954 13.1046 10 12 10C10.8954 10 10 10.8954 10 12C10 13.1046 10.8954 14 12 14C13.1046 14 14 13.1046 14 12ZM19 10C20.1046 10 21 10.8954 21 12C21 13.1046 20.1046 14 19 14C17.8954 14 17 13.1046 17 12C17 10.8954 17.8954 10 19 10Z"/>
  </symbol>
  <symbol id="news" viewBox="0 0 7.9375 7.9375" width="24" height="24">
    <g xmlns="http://www.w3.org/2000/svg" transform="matrix(.254 0 0 .254 .92614 .79298)" fill="none">
      <path d="m11.99 21.624-0.9331 1.5192c-0.0589 0.096-0.1331 0.1818-0.2196 0.2541-0.9487 0.7928-2.3978 0.7493-3.2899-0.1035-0.46939-0.4487-0.72046-1.0673-0.68251-1.6411l-0.00186-4.0086-4.5828-3.7271c-0.45201-0.3676-0.80049-0.8464-1.0111-1.3894-0.67044-1.7284 0.19002-3.6717 1.9204-4.3401l18.304-7.0704c0.3543-0.13689 0.6885-0.07655 0.9438 0.09447 0.3173 0.20316 0.5035 0.56705 0.4773 0.94769-0.0045 0.0727-0.017 0.14576-0.0385 0.21808l-4.9911 17.981c-0.4925 1.7743-2.3388 2.8137-4.1231 2.3291-0.4495-0.122-0.8686-0.3357-1.2306-0.6275zm-1.6352-1.3183-1.4086-1.1355 4e-5 2.5471c-0.00102 0.0163 0.0085 0.0397 0.04082 0.0706 0.09776 0.0935 0.278 0.1175 0.41675 0.0662zm-0.86028-3.3694 4.3442 3.5019c0.1375 0.1109 0.2973 0.1924 0.4691 0.239 0.6825 0.1854 1.3849-0.2101 1.5696-0.8758l3.8532-13.882zm-1.7036-1.2243 10.247-11.025-14.097 5.4437c-0.65708 0.2538-0.98286 0.9893-0.72918 1.6431 0.07976 0.2055 0.21186 0.387 0.38338 0.5264z" clip-rule="evenodd" fill="#00b7ff" fill-rule="evenodd"/>
    </g>
  </symbol>
  <symbol id="notes" viewBox="0 0 20 20" width="20" height="20">
    <path fill-rule="evenodd" clip-rule="evenodd" d="M5.00033 1.66699H15.0003C16.8413 1.66699 18.3337 3.15938 18.3337 5.00033V15.0003C18.3337 16.8413 16.8413 18.3337 15.0003 18.3337H5.00033C3.15938 18.3337 1.66699 16.8413 1.66699 15.0003V5.00033C1.66699 3.15938 3.15938 1.66699 5.00033 1.66699ZM5.00033 3.33366C4.07985 3.33366 3.33366 4.07985 3.33366 5.00033V15.0003C3.33366 15.9208 4.07985 16.667 5.00033 16.667H15.0003C15.9208 16.667 16.667 15.9208 16.667 15.0003V5.00033C16.667 4.07985 15.9208 3.33366 15.0003 3.33366H5.00033ZM5.83366 6.66699C5.37342 6.66699 5.00033 6.2939 5.00033 5.83366C5.00033 5.37342 5.37342 5.00033 5.83366 5.00033H14.167C14.6272 5.00033 15.0003 5.37342 15.0003 5.83366C15.0003 6.2939 14.6272 6.66699 14.167 6.66699H5.83366ZM5.83366 10.8337C5.37342 10.8337 5.00033 10.4606 5.00033 10.0003C5.00033 9.54009 5.37342 9.16699 5.83366 9.16699H14.167C14.6272 9.16699 15.0003 9.54009 15.0003 10.0003C15.0003 10.4606 14.6272 10.8337 14.167 10.8337H5.83366ZM5.83366 15.0003C5.37342 15.0003 5.00033 14.6272 5.00033 14.167C5.00033 13.7068 5.37342 13.3337 5.83366 13.3337H10.0003C10.4606 13.3337 10.8337 13.7068 10.8337 14.167C10.8337 14.6272 10.4606 15.0003 10.0003 15.0003H5.83366Z"/>
  </symbol>
  <symbol id="paper-airplane" viewBox="0 0 22 23" width="22" height="23">
    <path fill-rule="evenodd" clip-rule="evenodd" d="M10.8857 20.2589L9.9899 21.7173C9.93327 21.8095 9.86206 21.8919 9.77905 21.9613C8.8683 22.7224 7.47711 22.6806 6.62075 21.862C6.17013 21.4312 5.9291 20.8373 5.96554 20.2865L5.96375 16.4382L1.56423 12.8602C1.1303 12.5073 0.795764 12.0477 0.593586 11.5264C-0.0500376 9.86709 0.776005 8.00157 2.43713 7.35992L20.0089 0.572349C20.3491 0.440937 20.6699 0.498862 20.915 0.663042C21.2195 0.858077 21.3983 1.20741 21.3732 1.57282C21.3689 1.64262 21.3568 1.71276 21.3362 1.78218L16.5447 19.0442C16.0719 20.7474 14.2995 21.7453 12.5866 21.2801C12.155 21.1629 11.7527 20.9578 11.4052 20.6777L10.8857 20.2589ZM9.31583 18.9934L7.96355 17.9033L7.96358 20.3484C7.96261 20.3641 7.97174 20.3866 8.00277 20.4163C8.09662 20.506 8.26965 20.5291 8.40285 20.4798L9.31583 18.9934ZM8.48998 15.7587L12.6604 19.1206C12.7924 19.227 12.9458 19.3052 13.1108 19.35C13.7659 19.528 14.4402 19.1483 14.6176 18.5092L18.3166 5.18289L8.48998 15.7587ZM6.85449 14.5834L16.6915 3.99968L3.15824 9.22565C2.52744 9.46923 2.21469 10.1753 2.45822 10.803C2.53479 11.0003 2.66161 11.1745 2.82627 11.3084L6.85449 14.5834Z"/>
  </symbol>
  <symbol id="plus" viewBox="0 0 25 25" width="25" height="25">
    <path fill-rule="evenodd" clip-rule="evenodd" d="M13.5417 11.4583H20.8333C21.4086 11.4583 21.875 11.9247 21.875 12.5C21.875 13.0753 21.4086 13.5417 20.8333 13.5417H13.5417V20.8333C13.5417 21.4086 13.0753 21.875 12.5 21.875C11.9247 21.875 11.4583 21.4086 11.4583 20.8333V13.5417H4.16667C3.59137 13.5417 3.125 13.0753 3.125 12.5C3.125 11.9247 3.59137 11.4583 4.16667 11.4583H11.4583V4.16667C11.4583 3.59137 11.9247 3.125 12.5 3.125C13.0753 3.125 13.5417 3.59137 13.5417 4.16667V11.4583Z"/>
  </symbol>
  <symbol id="popular" viewBox="0 0 30 30" width="30" height="30">
    <path fill-rule="evenodd" clip-rule="evenodd" d="M2.63748 14.2969C4.9428 8.63523 9.69903 5 15 5C20.301 5 25.0572 8.63523 27.3625 14.2969C27.5458 14.7471 27.5458 15.2529 27.3625 15.7031C25.0572 21.3648 20.301 25 15 25C9.69903 25 4.9428 21.3648 2.63748 15.7031C2.45417 15.2529 2.45417 14.7471 2.63748 14.2969ZM14.9997 22.6875C19.2735 22.6875 23.1918 19.7339 25.187 15.0004C23.1918 10.267 19.2735 7.31336 14.9997 7.31336C10.7258 7.31336 6.80747 10.267 4.81227 15.0004C6.80747 19.7339 10.7258 22.6875 14.9997 22.6875ZM15 19.558C12.5265 19.558 10.5214 17.5174 10.5214 15.0001C10.5214 12.4829 12.5265 10.4423 15 10.4423C17.4734 10.4423 19.4786 12.4829 19.4786 15.0001C19.4786 17.5174 17.4734 19.558 15 19.558ZM15.0003 17.2448C16.2186 17.2448 17.2062 16.2397 17.2062 14.9999C17.2062 13.7601 16.2186 12.755 15.0003 12.755C13.782 12.755 12.7944 13.7601 12.7944 14.9999C12.7944 16.2397 13.782 17.2448 15.0003 17.2448Z" fill="#00B7FF"/>
  </symbol>
  <symbol id="refund" viewBox="0 0 24 24" width="24" height="24">
    <path fill-rule="evenodd" clip-rule="evenodd" d="M5.84947 5.5L8.12474 3.67937C8.55597 3.33431 8.62582 2.70501 8.28076 2.27379C7.93571 1.84256 7.30641 1.77271 6.87518 2.11777L2.37518 5.71858C2.1303 5.91453 2.00529 6.19687 2.00013 6.48104C2.00006 6.48734 2 6.49366 2 6.5C2 6.61695 2.02008 6.72921 2.05697 6.83352L2.057 6.8336C2.05972 6.84131 2.06254 6.84897 2.06545 6.85658C2.09969 6.94913 2.15362 7.04474 2.22422 7.13105C2.27588 7.19448 2.33516 7.25146 2.40068 7.30058L6.8752 10.8808C7.30644 11.2259 7.93573 11.156 8.28078 10.7248C8.62583 10.2935 8.55596 9.66423 8.12472 9.31918L5.85113 7.5H14.25C17.4256 7.5 20 10.0744 20 13.25C20 16.4256 17.4256 19 14.25 19H7.5C6.94772 19 6.5 19.4477 6.5 20C6.5 20.5523 6.94772 21 7.5 21H14.25C18.5302 21 22 17.5302 22 13.25C22 8.96979 18.5302 5.5 14.25 5.5H5.84947Z" fill="#00B7FF"/>
  </symbol>
  <symbol id="reply" viewBox="0 0 15 15" width="15" height="15">
    <path fill-rule="evenodd" clip-rule="evenodd" d="M7.70324 5.22404L7.70124 2.88522C7.7008 2.36465 8.33565 2.10979 8.69529 2.48617L13.1093 7.10567C13.3223 7.32866 13.3223 7.6798 13.1093 7.9028L8.70316 12.5141C8.34386 12.8901 7.70956 12.6361 7.70912 12.116L7.70691 9.52649C5.34446 9.81332 3.73065 10.7721 2.80964 12.3996C2.50898 12.9309 1.69695 12.6923 1.73154 12.0828C1.95202 8.19774 3.9814 5.87026 7.70324 5.22404ZM11.8942 7.50435L8.85634 4.32502L8.85753 5.72C8.85777 6.0104 8.64213 6.25572 8.3541 6.29272C5.61746 6.64421 3.93247 7.89048 3.23585 10.0984C4.47251 9.05609 6.14942 8.46261 8.24332 8.31712C8.57669 8.29395 8.85995 8.55799 8.86023 8.89216L8.86176 10.678L11.8942 7.50435Z"/>
  </symbol>
  <symbol id="report" viewBox="0 0 20 20" width="20" height="20">
    <path fill-rule="evenodd" clip-rule="evenodd" d="M6.66536 0.833008H13.332C16.5537 0.833008 19.1654 3.44468 19.1654 6.66634V13.333C19.1654 16.5547 16.5537 19.1663 13.332 19.1663H6.66536C3.4437 19.1663 0.832031 16.5547 0.832031 13.333V6.66634C0.832031 3.44468 3.4437 0.833008 6.66536 0.833008ZM6.66536 2.49967C4.36418 2.49967 2.4987 4.36515 2.4987 6.66634V13.333C2.4987 15.6342 4.36418 17.4997 6.66536 17.4997H13.332C15.6332 17.4997 17.4987 15.6342 17.4987 13.333V6.66634C17.4987 4.36515 15.6332 2.49967 13.332 2.49967H6.66536ZM6.90944 8.08893L8.67721 9.8567L6.90944 11.6245C6.58401 11.9499 6.58401 12.4775 6.90944 12.803C7.23488 13.1284 7.76252 13.1284 8.08795 12.803L9.85572 11.0352L11.6235 12.803C11.9489 13.1284 12.4766 13.1284 12.802 12.803C13.1274 12.4775 13.1274 11.9499 12.802 11.6245L11.0342 9.8567L12.802 8.08893C13.1274 7.76349 13.1274 7.23586 12.802 6.91042C12.4766 6.58498 11.9489 6.58498 11.6235 6.91042L9.85572 8.67819L8.08795 6.91042C7.76252 6.58498 7.23488 6.58498 6.90944 6.91042C6.58401 7.23586 6.58401 7.76349 6.90944 8.08893Z"/>
  </symbol>
  <symbol id="search" viewBox="0 0 25 25" width="25" height="25">
    <path fill-rule="evenodd" clip-rule="evenodd" d="M4.87867 4.8777C1.15242 8.60395 1.15242 14.6454 4.87867 18.3717C8.42676 21.9197 14.0739 22.0894 17.8228 18.8806L21.5425 22.6003C22.5246 23.5824 23.9977 22.1093 23.0156 21.1272L19.2509 17.3624C22.0714 13.624 21.7786 8.28367 18.3726 4.8777C14.6464 1.15144 8.60493 1.15144 4.87867 4.8777ZM6.3518 6.35084C9.26446 3.43818 13.9868 3.43818 16.8995 6.35084C19.8121 9.2635 19.8121 13.9859 16.8995 16.8985C13.9868 19.8112 9.26446 19.8112 6.3518 16.8985C3.43914 13.9859 3.43914 9.2635 6.3518 6.35084Z"/>
  </symbol>
  <symbol id="share" viewBox="0 0 20 20" width="20" height="20">
    <path fill-rule="evenodd" clip-rule="evenodd" d="M12.5013 4.16634C12.5013 2.32539 13.9937 0.833008 15.8346 0.833008C17.6756 0.833008 19.168 2.32539 19.168 4.16634C19.168 6.00729 17.6756 7.49967 15.8346 7.49967C14.6968 7.49967 13.6922 6.92959 13.0907 6.05948L7.30801 8.87838C7.43315 9.22879 7.5013 9.60627 7.5013 9.99967C7.5013 10.3659 7.44223 10.7184 7.3331 11.0481L13.0826 13.9516C13.6831 13.0749 14.6917 12.4997 15.8346 12.4997C17.6756 12.4997 19.168 13.9921 19.168 15.833C19.168 17.674 17.6756 19.1663 15.8346 19.1663C13.9937 19.1663 12.5013 17.674 12.5013 15.833C12.5013 15.7315 12.5058 15.6311 12.5147 15.532L6.42222 12.4552C5.8288 13.0003 5.03724 13.333 4.16797 13.333C2.32702 13.333 0.834637 11.8406 0.834637 9.99967C0.834637 8.15873 2.32702 6.66634 4.16797 6.66634C5.00649 6.66634 5.77269 6.97596 6.35849 7.4871L12.5164 4.48531C12.5064 4.38033 12.5013 4.27393 12.5013 4.16634ZM17.5013 4.16634C17.5013 3.24587 16.7551 2.49967 15.8346 2.49967C14.9142 2.49967 14.168 3.24587 14.168 4.16634C14.168 5.08682 14.9142 5.83301 15.8346 5.83301C16.7551 5.83301 17.5013 5.08682 17.5013 4.16634ZM17.5013 15.833C17.5013 14.9125 16.7551 14.1663 15.8346 14.1663C14.9142 14.1663 14.168 14.9125 14.168 15.833C14.168 16.7535 14.9142 17.4997 15.8346 17.4997C16.7551 17.4997 17.5013 16.7535 17.5013 15.833ZM4.16797 8.33301C5.08844 8.33301 5.83464 9.0792 5.83464 9.99967C5.83464 10.9201 5.08844 11.6663 4.16797 11.6663C3.24749 11.6663 2.5013 10.9201 2.5013 9.99967C2.5013 9.0792 3.24749 8.33301 4.16797 8.33301Z"/>
  </symbol>
  <symbol id="social/facebook" viewBox="0 0 35 35" width="35" height="35">
    <path d="M17.5 35C27.165 35 35 27.165 35 17.5C35 7.83502 27.165 0 17.5 0C7.83502 0 0 7.83502 0 17.5C0 27.165 7.83502 35 17.5 35Z" fill="#3B5998"/>
    <path d="M21.8993 18.1851H18.7766V29.625H14.0455V18.1851H11.7954V14.1646H14.0455V11.5629C14.0455 9.7024 14.9293 6.78906 18.8187 6.78906L22.3232 6.80372V10.7063H19.7805C19.3634 10.7063 18.7769 10.9147 18.7769 11.8022V14.1683H22.3126L21.8993 18.1851Z" fill="white"/>
  </symbol>
  <symbol id="social/geo" viewBox="0 0 16 16" width="16" height="16">
    <path fill-rule="evenodd" clip-rule="evenodd" d="M7.50134 15.0027C11.6442 15.0027 15.0027 11.6442 15.0027 7.50134C15.0027 3.35846 11.6442 0 7.50134 0C3.35846 0 0 3.35846 0 7.50134C0 11.6442 3.35846 15.0027 7.50134 15.0027Z" fill="#09BD9F"/>
    <path fill-rule="evenodd" clip-rule="evenodd" d="M4.78337 7.31567C5.4962 8.99001 7.5099 12.0016 7.5099 12.0016C7.5099 12.0016 9.84314 8.34809 10.3208 7.0778H10.3176C10.4367 6.7513 10.5018 6.39839 10.5018 6.03013C10.5018 4.35663 9.15842 3 7.50127 3C5.84412 3 4.50073 4.35663 4.50073 6.03013C4.50073 6.48972 4.60205 6.92541 4.78337 7.31567ZM7.50058 7.75092C8.46725 7.75092 9.25089 6.96728 9.25089 6.00061C9.25089 5.03394 8.46725 4.25029 7.50058 4.25029C6.53391 4.25029 5.75027 5.03394 5.75027 6.00061C5.75027 6.96728 6.53391 7.75092 7.50058 7.75092Z" fill="white"/>
  </symbol>
  <symbol id="social/google" viewBox="0 0 35 35" width="35" height="35">
    <g xmlns="http://www.w3.org/2000/svg" clip-path="url(#clip0)">
<path d="M17.5 34.999C27.165 34.999 35 27.164 35 17.499C35 7.83404 27.165 -0.000976562 17.5 -0.000976562C7.83502 -0.000976562 0 7.83404 0 17.499C0 27.164 7.83502 34.999 17.5 34.999Z" fill="#DC4E41"/>
<path d="M6.09281 18.2841C6.03073 21.2951 8.1046 24.1685 10.9574 25.1056C13.6446 26.0084 16.9485 25.333 18.7366 23.0318C20.0421 21.4193 20.3388 19.2696 20.1975 17.2612C17.8962 17.2406 15.5949 17.2475 13.2971 17.2509C13.2933 18.0707 13.2971 18.8874 13.3005 19.7073C14.6784 19.7453 16.0566 19.7278 17.4345 19.7556C17.0867 20.9476 16.2943 22.0569 15.0917 22.4874C12.7699 23.5106 9.80725 22.1739 9.07665 19.7381C8.19476 17.4057 9.63848 14.5909 12.0221 13.9124C13.5002 13.3924 15.0228 13.9779 16.2875 14.7462C16.9282 14.1467 17.5278 13.5059 18.1168 12.8583C16.6799 11.656 14.8335 10.9189 12.9352 11.0808C9.21079 11.1251 5.95149 14.5634 6.09281 18.2841Z" fill="#DC4E41"/>
<path d="M24.6762 15.1826C24.6694 15.8683 24.6622 16.5574 24.6588 17.2428C23.9697 17.2496 23.2843 17.2531 22.5986 17.2565C22.5986 17.9422 22.5986 18.6241 22.5986 19.3098C23.2843 19.3132 23.9734 19.3166 24.6588 19.3238C24.6656 20.0095 24.6656 20.6948 24.6725 21.384C25.3547 21.384 26.0404 21.3805 26.7258 21.384C26.7295 20.6948 26.7326 20.0095 26.7398 19.3204C27.4252 19.3169 28.1143 19.3135 28.8 19.3101C28.8 18.6244 28.8 17.9425 28.8 17.2568C28.1146 17.2534 27.4255 17.2499 26.7398 17.2431C26.7361 16.5574 26.7295 15.8683 26.7258 15.1829C26.0404 15.1826 25.3582 15.1826 24.6762 15.1826Z" fill="#DC4E41"/>
<path d="M6.09281 18.2835C5.9515 14.5628 9.21048 11.1244 12.9349 11.0798C14.8331 10.9179 16.6799 11.6551 18.1165 12.8573C17.5272 13.5053 16.9276 14.1457 16.2872 14.7453C15.0225 13.9769 13.4998 13.3914 12.0218 13.9114C9.63786 14.5902 8.19413 17.405 9.07634 19.7372C9.80694 22.1729 12.7696 23.5096 15.0914 22.4864C16.2937 22.0559 17.0864 20.9466 17.4342 19.7546C16.0563 19.7272 14.6781 19.7443 13.3002 19.7063C13.2968 18.8865 13.2933 18.0698 13.2968 17.25C15.5946 17.2465 17.8959 17.2397 20.1972 17.2602C20.3385 19.2689 20.0422 21.4186 18.7363 23.0308C16.9482 25.3321 13.6446 26.0074 10.9571 25.1046C8.10491 24.1678 6.03073 21.2944 6.09281 18.2835Z" fill="white"/>
<path d="M24.6762 15.1826C25.3585 15.1826 26.0404 15.1826 26.7258 15.1826C26.7295 15.8683 26.7361 16.5574 26.7398 17.2428C27.4252 17.2496 28.1143 17.2531 28.8 17.2565C28.8 17.9422 28.8 18.6241 28.8 19.3098C28.1146 19.3132 27.4255 19.3166 26.7398 19.3201C26.733 20.0092 26.7295 20.6945 26.7258 21.3836C26.0404 21.3802 25.3544 21.3836 24.6725 21.3836C24.666 20.6945 24.666 20.0092 24.6588 19.3235C23.9734 19.3163 23.2843 19.3132 22.5986 19.3095C22.5986 18.6238 22.5986 17.9418 22.5986 17.2562C23.2843 17.2527 23.97 17.2493 24.6588 17.2424C24.6622 16.5574 24.6691 15.8683 24.6762 15.1826Z" fill="white"/>
</g>
  </symbol>
  <symbol id="social/in" viewBox="0 0 34 34" width="34pt" height="34pt">
    <g xmlns="http://www.w3.org/2000/svg" id="surface1">
<path style=" stroke:none;fill-rule:nonzero;fill:rgb(0%,47.843137%,72.54902%);fill-opacity:1;" d="M 17 33.996094 C 26.390625 33.996094 34 26.386719 34 16.996094 C 34 7.609375 26.390625 -0.00390625 17 -0.00390625 C 7.609375 -0.00390625 0 7.609375 0 16.996094 C 0 26.386719 7.609375 33.996094 17 33.996094 Z M 17 33.996094 "/>
<path style=" stroke:none;fill-rule:nonzero;fill:rgb(100%,100%,100%);fill-opacity:1;" d="M 27.160156 18.367188 L 27.160156 25.375 L 23.097656 25.375 L 23.097656 18.835938 C 23.097656 17.195312 22.511719 16.074219 21.039062 16.074219 C 19.914062 16.074219 19.25 16.828125 18.953125 17.558594 C 18.847656 17.820312 18.820312 18.183594 18.820312 18.550781 L 18.820312 25.375 L 14.757812 25.375 C 14.757812 25.375 14.808594 14.300781 14.757812 13.152344 L 18.820312 13.152344 L 18.820312 14.886719 C 18.8125 14.898438 18.800781 14.914062 18.792969 14.925781 L 18.820312 14.925781 L 18.820312 14.886719 C 19.359375 14.054688 20.324219 12.867188 22.480469 12.867188 C 25.15625 12.867188 27.160156 14.613281 27.160156 18.367188 Z M 10.503906 7.261719 C 9.113281 7.261719 8.207031 8.175781 8.207031 9.375 C 8.207031 10.546875 9.089844 11.484375 10.453125 11.484375 L 10.476562 11.484375 C 11.894531 11.484375 12.777344 10.546875 12.777344 9.375 C 12.75 8.175781 11.894531 7.261719 10.503906 7.261719 Z M 8.445312 25.375 L 12.507812 25.375 L 12.507812 13.152344 L 8.445312 13.152344 Z M 8.445312 25.375 "/>
</g>
  </symbol>
  <symbol id="social/instagram" viewBox="0 0 35 35" width="35" height="35">
    <rect x="6.125" y="6.125" width="22.75" height="22.75" fill="white"/>
    <path d="M22.7159 9.31152H12.2843C10.6193 9.31152 9.26465 10.6662 9.26465 12.3312V22.7628C9.26465 24.4278 10.6193 25.7829 12.2843 25.7829H22.7159C24.381 25.7829 25.736 24.4282 25.736 22.7628V12.3312C25.736 10.6662 24.3813 9.31152 22.7159 9.31152ZM17.5001 22.9695C14.5105 22.9695 12.078 20.537 12.078 17.547C12.078 14.5574 14.5105 12.1249 17.5001 12.1249C20.4902 12.1249 22.9226 14.5574 22.9226 17.547C22.9226 20.5367 20.4898 22.9695 17.5001 22.9695ZM23.0969 13.246C22.3892 13.246 21.8136 12.6704 21.8136 11.9631C21.8136 11.2558 22.3892 10.6802 23.0969 10.6802C23.8042 10.6802 24.3798 11.2558 24.3798 11.9631C24.3798 12.6704 23.8042 13.246 23.0969 13.246Z" fill="url(#paintig0_linear)"/>
    <path d="M17.5003 14.416C15.7745 14.416 14.3691 15.8206 14.3691 17.5464C14.3691 19.2731 15.7745 20.678 17.5003 20.678C19.227 20.678 20.6311 19.2731 20.6311 17.5464C20.6311 15.821 19.2266 14.416 17.5003 14.416Z" fill="url(#paintig1_linear)"/>
    <path d="M17.5 0C7.8354 0 0 7.8354 0 17.5C0 27.1646 7.8354 35 17.5 35C27.1646 35 35 27.1646 35 17.5C35 7.8354 27.1646 0 17.5 0ZM28.0267 22.763C28.0267 25.6918 25.6446 28.0739 22.7158 28.0739H12.2842C9.35577 28.0739 6.97325 25.6918 6.97325 22.763V12.3314C6.97325 9.40295 9.35577 7.02043 12.2842 7.02043H22.7158C25.6446 7.02043 28.0267 9.40295 28.0267 12.3314V22.763Z" fill="url(#paintig2_linear)"/>
  </symbol>
  <symbol id="social/mail" viewBox="0 0 35 35" width="35" height="35">
    <path fill-rule="evenodd" clip-rule="evenodd" d="M0 17.5C0 7.83502 7.83502 0 17.5 0C27.165 0 35 7.83502 35 17.5C35 27.165 27.165 35 17.5 35C7.83502 35 0 27.165 0 17.5Z" fill="#00B8FF"/>
    <path fill-rule="evenodd" clip-rule="evenodd" d="M25.833 9.16699H9.16634C8.01575 9.16699 7.08301 10.0997 7.08301 11.2503V23.7503C7.08301 24.9009 8.01575 25.8337 9.16634 25.8337H25.833C26.9836 25.8337 27.9163 24.9009 27.9163 23.7503V11.2503C27.9163 10.0997 26.9836 9.16699 25.833 9.16699ZM25.833 11.2503V14.2712L18.1768 19.6357C17.7696 19.9183 17.2298 19.9183 16.8226 19.6357L9.16634 14.2712V11.2503H25.833ZM9.16634 16.4587V23.7503H25.833V16.4587L19.2184 21.0837C18.1862 21.8052 16.8132 21.8052 15.7809 21.0837L9.16634 16.4587Z" fill="white"/>
  </symbol>
  <symbol id="social/phone" viewBox="0 0 34 34" width="34pt" height="34pt">
    <g xmlns="http://www.w3.org/2000/svg" id="surface1">
<path style=" stroke:none;fill-rule:evenodd;fill:rgb(43.529412%,83.137255%,32.941176%);fill-opacity:1;" d="M 0 15.941406 C 0 7.136719 7.136719 0 15.941406 0 C 24.742188 0 31.878906 7.136719 31.878906 15.941406 C 31.878906 24.742188 24.742188 31.878906 15.941406 31.878906 C 7.136719 31.878906 0 24.742188 0 15.941406 Z M 0 15.941406 "/>
<path style=" stroke:none;fill-rule:evenodd;fill:rgb(100%,100%,100%);fill-opacity:1;" d="M 11.269531 8 C 11.464844 7.984375 11.628906 8.03125 11.738281 8.210938 C 11.976562 8.601562 12.21875 8.992188 12.449219 9.390625 C 12.714844 9.851562 12.957031 10.328125 13.21875 10.792969 C 13.285156 10.917969 13.378906 11.035156 13.457031 11.152344 C 13.527344 11.265625 13.59375 11.382812 13.664062 11.5 C 13.800781 11.757812 13.792969 12.015625 13.589844 12.222656 C 13.300781 12.519531 12.980469 12.792969 12.671875 13.078125 C 12.417969 13.3125 12.148438 13.539062 11.898438 13.777344 C 11.703125 13.96875 11.652344 14.203125 11.785156 14.453125 C 11.988281 14.832031 12.191406 15.214844 12.414062 15.585938 C 13.238281 16.964844 14.296875 18.136719 15.628906 19.039062 C 16.144531 19.386719 16.679688 19.707031 17.21875 20.015625 C 17.726562 20.300781 17.925781 20.253906 18.320312 19.8125 C 18.6875 19.402344 19.042969 18.988281 19.410156 18.578125 C 19.496094 18.476562 19.601562 18.390625 19.707031 18.304688 C 19.914062 18.128906 20.140625 18.109375 20.378906 18.230469 C 20.445312 18.261719 20.519531 18.292969 20.578125 18.335938 C 21.210938 18.789062 21.921875 19.109375 22.589844 19.496094 C 22.949219 19.703125 23.300781 19.921875 23.652344 20.132812 C 23.84375 20.246094 23.917969 20.410156 23.90625 20.636719 C 23.871094 21.273438 23.765625 21.898438 23.394531 22.433594 C 23.242188 22.65625 23.023438 22.851562 22.800781 23.011719 C 22.1875 23.4375 21.503906 23.703125 20.773438 23.867188 C 20.113281 24.015625 19.453125 23.960938 18.816406 23.761719 C 17.59375 23.386719 16.386719 22.953125 15.273438 22.296875 C 14.265625 21.699219 13.347656 20.980469 12.5 20.175781 C 11.425781 19.152344 10.464844 18.035156 9.6875 16.765625 C 9.183594 15.941406 8.820312 15.050781 8.496094 14.148438 C 8.296875 13.601562 8.101562 13.058594 8.011719 12.480469 C 7.914062 11.824219 7.980469 11.191406 8.191406 10.570312 C 8.378906 10.011719 8.617188 9.472656 8.972656 8.992188 C 9.253906 8.621094 9.601562 8.347656 10.054688 8.226562 C 10.417969 8.128906 10.785156 8.054688 11.148438 7.96875 C 11.195312 8.007812 11.230469 8.007812 11.269531 8 Z M 11.269531 8 "/>
</g>
  </symbol>
  <symbol id="social/simple/facebook" viewBox="0 0 16 16" width="16" height="16">
    <path d="M0 0V16H8.52098V9.81953H6.43799V7.2965H8.52098V5.17759C8.52098 3.63657 9.77021 2.38734 11.3112 2.38734H13.4888V4.65613H11.9306C11.441 4.65613 11.044 5.0531 11.044 5.54276V7.29653H13.4497L13.1172 9.81957H11.044V16H16V0H0Z"/>
  </symbol>
  <symbol id="social/simple/google" viewBox="0 0 16 16" width="16" height="16">
    <path fill-rule="evenodd" clip-rule="evenodd" d="M10.5157 3.9635L13.1074 1.84175C11.7219 0.691437 9.9421 0 8.00101 0C4.90913 0 2.22695 1.75384 0.895508 4.32088H0.895945L0.896119 4.32102L0.894938 4.3208H0.8945C0.322625 5.42233 0 6.67333 0 7.99993C0 9.37169 0.345005 10.6626 0.953253 11.7908L0.952881 11.7911C2.3041 14.2971 4.95288 15.9999 7.99947 15.9999C9.89529 15.9999 11.6368 15.3406 13.0078 14.2386L13.0077 14.2385C14.4173 13.1053 15.4348 11.504 15.8242 9.67021C15.939 9.13131 15.9992 8.57262 15.9992 7.99987C15.9992 7.48909 15.9513 6.98931 15.8594 6.50537H12.5153H8.17505V9.67021H12.4529C12.0678 10.6979 11.3368 11.5564 10.4014 12.1049L10.4015 12.1051C9.6969 12.5186 8.87586 12.7555 7.99947 12.7555C5.96065 12.7555 4.22153 11.4724 3.54572 9.66975L3.54594 9.66893C3.35078 9.14983 3.24441 8.58718 3.24434 7.99993C3.24434 7.45883 3.33491 6.93883 3.50106 6.45443L3.50053 6.45321L3.5021 6.4545C4.14385 4.58678 5.91573 3.24437 8.00101 3.24437C8.92451 3.24437 9.78651 3.50769 10.5157 3.9635Z"/>
  </symbol>
  <symbol id="social/simple/vk" viewBox="0 0 23 13" width="23" height="13">
    <path fill-rule="evenodd" clip-rule="evenodd" d="M12.628 12.9457C12.628 12.9457 13.0431 12.9 13.2557 12.6737C13.4503 12.4664 13.4435 12.0752 13.4435 12.0752C13.4435 12.0752 13.4177 10.2485 14.2737 9.97882C15.1174 9.71357 16.2007 11.7453 17.3504 12.5266C18.2189 13.1173 18.8781 12.988 18.8781 12.988L21.9503 12.9457C21.9503 12.9457 23.5567 12.8476 22.7951 11.596C22.7321 11.4934 22.3507 10.6698 20.5115 8.97799C18.5845 7.20702 18.8432 7.49345 21.1628 4.42965C22.5757 2.56395 23.1404 1.42491 22.9638 0.937868C22.7962 0.472 21.7568 0.595711 21.7568 0.595711L18.2987 0.616887C18.2987 0.616887 18.0422 0.582337 17.8521 0.694903C17.6665 0.80524 17.5462 1.06269 17.5462 1.06269C17.5462 1.06269 16.9994 2.50599 16.2694 3.73419C14.7293 6.32432 14.114 6.46141 13.862 6.30092C13.2759 5.92533 13.4222 4.79409 13.4222 3.99053C13.4222 1.47952 13.8069 0.432992 12.6741 0.162164C12.2983 0.0718886 12.0216 0.0128192 11.0598 0.00278856C9.82575 -0.00947112 8.78182 0.00724661 8.1901 0.293677C7.79638 0.484259 7.49264 0.910005 7.67826 0.934524C7.90662 0.964616 8.42409 1.07272 8.69857 1.44274C9.05292 1.92087 9.04055 2.99304 9.04055 2.99304C9.04055 2.99304 9.24416 5.94873 8.5647 6.31541C8.09898 6.56729 7.46002 6.0535 6.08648 3.70298C5.3834 2.4993 4.85243 1.16857 4.85243 1.16857C4.85243 1.16857 4.75006 0.920035 4.5667 0.786293C4.34509 0.624689 4.03573 0.574535 4.03573 0.574535L0.74981 0.595711C0.74981 0.595711 0.255965 0.609085 0.074851 0.821958C-0.0860141 1.01031 0.0624768 1.40151 0.0624768 1.40151C0.0624768 1.40151 2.63519 7.36528 5.54876 10.3711C8.22048 13.1262 11.2533 12.9457 11.2533 12.9457H12.628Z"/>
  </symbol>
  <symbol id="social/simple/tg" viewBox="0 0 24 24" width="24">
    <path d="m1.95617055 11.392196c5.77764656-2.42328736 9.63031585-4.02086673 11.55800785-4.79273807 5.5039525-2.20384954 6.6476266-2.5866818 7.3930574-2.59932314.1639507-.00278035.5305319.0363352.7679878.22182361.2005031.15662277.2556695.36819788.2820684.51669348.026399.1484956.0592719.48677234.0331404.75109194-.2982611 3.0169019-1.5888322 10.33812718-2.2454015 13.71710898-.2778191 1.4297738-.8288514 1.7357846-1.3584441 1.7826999-1.1509274.1019576-2.0208916-.5588425-3.1356211-1.2622918-1.7443316-1.1007592-2.3854935-1.3972358-4.0786694-2.4713734-1.95675765-1.2413519-.8891962-1.8911034.2259543-3.0061212.2918402-.2918054 5.3989024-4.83750096 5.497052-5.24030969.0122753-.05037796-.1557336-.55407742-.2716182-.65323489-.1158847-.09915747-.2869204-.06524947-.4103446-.03828214-.17495.03822537-2.9615423 1.81132342-8.35977698 5.31929412-.79096496.5228681-1.50739646.7776269-2.1492945.7642766-.70764107-.0147176-2.06885864-.3851791-3.08078398-.7018404-1.24116762-.388398-1.69932554-.5713149-1.61342745-1.2309348.04474105-.3435709.36011227-.7024173.94611366-1.0765391z" fill="#fff" fill-rule="evenodd"/>
  </symbol>


  <symbol id="add-user" width="60" height="60" viewBox="0 0 60 60">
    <rect x="0.5" y="0.5" width="59" height="59" rx="29.5" fill="none" stroke="#F1F1F5"/>
    <path fill-rule="evenodd" clip-rule="evenodd" d="M31.5417 28.4583H38.8333C39.4086 28.4583 39.875 28.9247 39.875 29.5C39.875 30.0753 39.4086 30.5417 38.8333 30.5417H31.5417V37.8333C31.5417 38.4086 31.0753 38.875 30.5 38.875C29.9247 38.875 29.4583 38.4086 29.4583 37.8333V30.5417H22.1667C21.5914 30.5417 21.125 30.0753 21.125 29.5C21.125 28.9247 21.5914 28.4583 22.1667 28.4583H29.4583V21.1667C29.4583 20.5914 29.9247 20.125 30.5 20.125C31.0753 20.125 31.5417 20.5914 31.5417 21.1667V28.4583Z" fill="#00B7FF"/>
  </symbol>


  <symbol id="social/telegram" xmlns="http://www.w3.org/2000/svg" enable-background="new 0 0 24 24" height="512" viewBox="0 0 24 24" width="512">
    <circle cx="12" cy="12" fill="#039be5" r="12"/>
    <path d="m5.491 11.74 11.57-4.461c.537-.194 1.006.131.832.943l.001-.001-1.97 9.281c-.146.658-.537.818-1.084.508l-3-2.211-1.447 1.394c-.16.16-.295.295-.605.295l.213-3.053 5.56-5.023c.242-.213-.054-.333-.373-.121l-6.871 4.326-2.962-.924c-.643-.204-.657-.643.136-.953z" fill="#fff"/>
  </symbol>
  
  <symbol id="social/twitter" viewBox="0 0 35 35" width="35" height="35">
    <g xmlns="http://www.w3.org/2000/svg" clip-path="url(#clip0)">
<path d="M17.5008 34.9997C27.1657 34.9997 35.0007 27.1647 35.0007 17.4998C35.0007 7.83495 27.1657 0 17.5008 0C7.83592 0 0.000976562 7.83495 0.000976562 17.4998C0.000976562 27.1647 7.83592 34.9997 17.5008 34.9997Z" fill="#55ACEE"/>
<path d="M28.2196 12.5768C27.4696 12.9093 26.6629 13.1342 25.8169 13.2347C26.6807 12.7172 27.3436 11.8983 27.6565 10.9209C26.8482 11.4004 25.9526 11.7482 25.0002 11.9357C24.2372 11.1231 23.15 10.6152 21.9462 10.6152C19.6365 10.6152 17.7633 12.4885 17.7633 14.7982C17.7633 15.126 17.8004 15.4452 17.8721 15.7515C14.3958 15.5771 11.3134 13.9119 9.25012 11.3805C8.89013 11.9981 8.68362 12.7172 8.68362 13.4836C8.68362 14.9345 9.42263 16.2154 10.5444 16.9653C9.85905 16.9438 9.21362 16.7557 8.64993 16.4415C8.64961 16.4593 8.64961 16.4771 8.64961 16.4946C8.64961 18.5213 10.0921 20.2118 12.0053 20.5958C11.6546 20.6919 11.2844 20.7427 10.9035 20.7427C10.6333 20.7427 10.3716 20.7168 10.1164 20.6682C10.6486 22.3296 12.1931 23.5391 14.0239 23.5731C12.5921 24.6952 10.7887 25.3637 8.82836 25.3637C8.49146 25.3637 8.15767 25.344 7.83105 25.305C9.68124 26.4923 11.8805 27.1845 14.2426 27.1845C21.9366 27.1845 26.1442 20.8107 26.1442 15.2826C26.1442 15.1014 26.1401 14.9208 26.132 14.7417C26.9499 14.1521 27.659 13.4156 28.2196 12.5768Z" fill="white"/>
</g>
  </symbol>
  <symbol id="social/vk" viewBox="0 0 35 35" width="35" height="35">
    <path fill-rule="evenodd" clip-rule="evenodd" d="M0 17.5C0 7.83502 7.83502 0 17.5 0C27.165 0 35 7.83502 35 17.5C35 27.165 27.165 35 17.5 35C7.83502 35 0 27.165 0 17.5Z" fill="#4C6C91"/>
    <path fill-rule="evenodd" clip-rule="evenodd" d="M18.4158 23.2426C18.4158 23.2426 18.7527 23.2059 18.9252 23.024C19.0832 22.8573 19.0777 22.5427 19.0777 22.5427C19.0777 22.5427 19.0567 21.0739 19.7515 20.857C20.4362 20.6437 21.3154 22.2775 22.2485 22.9057C22.9533 23.3807 23.4883 23.2767 23.4883 23.2767L25.9817 23.2426C25.9817 23.2426 27.2854 23.1638 26.6673 22.1574C26.6162 22.0749 26.3067 21.4126 24.814 20.0522C23.25 18.6282 23.46 18.8585 25.3426 16.3949C26.4893 14.8947 26.9476 13.9788 26.8043 13.5871C26.6683 13.2125 25.8247 13.312 25.8247 13.312L23.0181 13.329C23.0181 13.329 22.81 13.3013 22.6557 13.3918C22.505 13.4805 22.4073 13.6875 22.4073 13.6875C22.4073 13.6875 21.9636 14.8481 21.3711 15.8357C20.1212 17.9184 19.6218 18.0286 19.4173 17.8996C18.9416 17.5976 19.0603 16.6879 19.0603 16.0418C19.0603 14.0227 19.3726 13.1812 18.4532 12.9634C18.1483 12.8908 17.9237 12.8433 17.1431 12.8353C16.1415 12.8254 15.2943 12.8388 14.814 13.0692C14.4945 13.2224 14.248 13.5647 14.3986 13.5845C14.584 13.6087 15.0039 13.6956 15.2267 13.9931C15.5143 14.3776 15.5043 15.2397 15.5043 15.2397C15.5043 15.2397 15.6695 17.6164 15.1181 17.9112C14.7401 18.1138 14.2215 17.7006 13.1067 15.8106C12.5361 14.8427 12.1052 13.7727 12.1052 13.7727C12.1052 13.7727 12.0221 13.5728 11.8733 13.4653C11.6934 13.3353 11.4424 13.295 11.4424 13.295L8.77553 13.312C8.77553 13.312 8.37473 13.3228 8.22774 13.4939C8.09718 13.6454 8.2177 13.96 8.2177 13.96C8.2177 13.96 10.3057 18.7554 12.6703 21.1725C14.8387 23.3878 17.3001 23.2426 17.3001 23.2426H18.4158Z" fill="white"/>
  </symbol>
  <symbol id="social/web" viewBox="0 0 34 34" width="34pt" height="34pt">
    <g xmlns="http://www.w3.org/2000/svg" id="surface1">
<path style=" stroke:none;fill-rule:evenodd;fill:rgb(0%,40.784314%,57.254902%);fill-opacity:1;" d="M 31.878906 15.941406 C 31.878906 24.742188 24.742188 31.878906 15.941406 31.878906 C 7.136719 31.878906 0 24.742188 0 15.941406 C 0 7.136719 7.136719 0 15.941406 0 C 24.742188 0 31.878906 7.136719 31.878906 15.941406 Z M 31.878906 15.941406 "/>
<path style=" stroke:none;fill-rule:evenodd;fill:rgb(100%,100%,100%);fill-opacity:1;" d="M 15.945312 6.375 C 10.671875 6.375 6.378906 10.664062 6.378906 15.9375 C 6.378906 21.210938 10.671875 25.503906 15.945312 25.503906 C 21.21875 25.503906 25.507812 21.214844 25.507812 15.9375 C 25.507812 10.664062 21.21875 6.375 15.945312 6.375 Z M 24.683594 15.9375 C 24.683594 16.105469 24.667969 16.269531 24.65625 16.433594 C 24.597656 16.28125 24.503906 16.078125 24.480469 15.992188 C 24.449219 15.859375 24.25 15.398438 24.25 15.398438 C 24.25 15.398438 24.054688 15.132812 23.921875 15.066406 C 23.789062 15 23.691406 14.835938 23.460938 14.707031 C 23.230469 14.574219 23.132812 14.507812 22.933594 14.507812 C 22.734375 14.507812 22.539062 14.242188 22.308594 14.113281 C 22.078125 13.980469 22.042969 14.046875 22.042969 14.046875 C 22.042969 14.046875 22.308594 14.441406 22.308594 14.539062 C 22.308594 14.640625 22.605469 14.804688 22.902344 14.738281 C 22.902344 14.738281 23.097656 15.101562 23.195312 15.199219 C 23.296875 15.296875 23.164062 15.394531 22.964844 15.527344 C 22.769531 15.660156 22.800781 15.625 22.703125 15.726562 C 22.605469 15.824219 22.273438 15.988281 22.175781 16.054688 C 22.078125 16.121094 21.683594 16.316406 21.484375 16.121094 C 21.386719 16.023438 21.417969 15.824219 21.351562 15.691406 C 21.289062 15.558594 20.597656 14.539062 20.265625 14.078125 C 20.210938 14 20.070312 13.75 19.972656 13.683594 C 19.871094 13.617188 20.203125 13.617188 20.203125 13.617188 C 20.203125 13.617188 20.203125 13.386719 20.167969 13.222656 C 20.136719 13.058594 20.203125 12.828125 20.203125 12.828125 C 20.203125 12.828125 19.871094 13.023438 19.773438 13.089844 C 19.675781 13.15625 19.574219 12.960938 19.445312 12.792969 C 19.3125 12.628906 19.179688 12.433594 19.148438 12.265625 C 19.113281 12.101562 19.3125 12.035156 19.3125 12.035156 L 19.609375 11.871094 C 19.609375 11.871094 19.972656 11.808594 20.203125 11.839844 C 20.433594 11.871094 20.792969 11.90625 20.792969 11.90625 C 20.792969 11.90625 20.890625 11.675781 20.761719 11.578125 C 20.628906 11.476562 20.332031 11.3125 20.199219 11.347656 C 20.070312 11.378906 20.265625 11.183594 20.429688 11.050781 L 20.066406 10.984375 C 20.066406 10.984375 19.734375 11.148438 19.632812 11.183594 C 19.535156 11.214844 19.363281 11.28125 19.230469 11.445312 C 19.101562 11.609375 19.285156 11.839844 19.152344 11.90625 C 19.023438 11.972656 18.933594 12.003906 18.835938 12.035156 C 18.734375 12.070312 18.421875 12.035156 18.421875 12.035156 C 18.082031 12.035156 18.300781 12.347656 18.386719 12.457031 L 18.125 12.136719 L 17.929688 11.675781 C 17.929688 11.675781 17.648438 11.480469 17.519531 11.414062 C 17.386719 11.347656 16.980469 11.117188 16.980469 11.117188 L 17.007812 11.414062 L 17.390625 11.800781 L 17.421875 11.808594 L 17.621094 12.070312 L 17.183594 12.105469 L 17.183594 11.84375 C 16.769531 11.742188 16.878906 11.640625 16.832031 11.609375 C 16.734375 11.542969 16.503906 11.378906 16.503906 11.378906 C 16.503906 11.378906 16.117188 11.445312 16.019531 11.476562 C 15.917969 11.511719 15.890625 11.609375 15.695312 11.675781 C 15.496094 11.742188 15.40625 11.839844 15.34375 11.9375 C 15.277344 12.035156 15.0625 12.332031 14.933594 12.464844 C 14.800781 12.597656 14.554688 12.5625 14.457031 12.5625 C 14.359375 12.5625 13.882812 12.433594 13.882812 12.433594 L 13.882812 11.875 C 13.882812 11.875 13.945312 11.558594 13.914062 11.460938 L 14.203125 11.414062 L 14.683594 11.3125 L 14.824219 11.214844 L 15.027344 10.953125 C 15.027344 10.953125 14.800781 10.785156 14.964844 10.554688 C 15.042969 10.445312 15.328125 10.425781 15.457031 10.328125 C 15.589844 10.226562 15.789062 10.160156 15.789062 10.160156 C 15.789062 10.160156 16.019531 9.964844 16.25 9.734375 C 16.25 9.734375 16.414062 9.632812 16.613281 9.566406 C 16.613281 9.566406 17.171875 10.0625 17.269531 10.0625 C 17.371094 10.0625 17.730469 9.832031 17.730469 9.832031 C 17.730469 9.832031 17.832031 9.535156 17.796875 9.4375 C 17.765625 9.339844 17.601562 9.007812 17.601562 9.007812 C 17.601562 9.007812 17.503906 9.175781 17.402344 9.304688 C 17.304688 9.4375 17.238281 9.601562 17.238281 9.601562 C 17.238281 9.601562 16.777344 9.570312 16.746094 9.472656 C 16.710938 9.371094 16.648438 9.210938 16.613281 9.113281 C 16.582031 9.011719 16.316406 9.015625 16.121094 9.082031 C 15.921875 9.148438 16.152344 8.726562 16.152344 8.726562 C 16.152344 8.726562 16.351562 8.480469 16.480469 8.480469 C 16.613281 8.480469 16.910156 8.308594 17.039062 8.277344 C 17.171875 8.246094 17.570312 8.09375 17.734375 8.09375 C 17.898438 8.09375 18.09375 8.164062 18.195312 8.164062 C 18.292969 8.164062 18.6875 8.164062 18.6875 8.164062 L 19.378906 8.109375 C 19.378906 8.109375 19.972656 8.328125 19.773438 8.460938 C 19.773438 8.460938 20.003906 8.605469 20.105469 8.703125 C 20.195312 8.796875 20.433594 8.617188 20.574219 8.539062 C 23.035156 10.085938 24.683594 12.820312 24.683594 15.9375 Z M 8.972656 10.785156 C 8.972656 10.917969 8.792969 10.949219 8.972656 11.28125 C 9.203125 11.710938 9.003906 11.90625 9.003906 11.90625 C 9.003906 11.90625 8.445312 12.300781 8.34375 12.367188 C 8.246094 12.433594 7.984375 12.796875 8.148438 12.695312 C 8.3125 12.597656 8.507812 12.5 8.34375 12.761719 C 8.179688 13.027344 7.882812 13.453125 7.820312 13.621094 C 7.753906 13.785156 7.425781 14.179688 7.425781 14.378906 C 7.425781 14.574219 7.292969 14.96875 7.324219 15.136719 C 7.347656 15.25 7.273438 15.589844 7.21875 15.726562 C 7.261719 13.875 7.886719 12.171875 8.914062 10.773438 C 8.949219 10.777344 8.972656 10.785156 8.972656 10.785156 Z M 10.027344 9.523438 C 10.832031 8.78125 11.777344 8.1875 12.816406 7.789062 C 12.714844 7.917969 12.589844 8.054688 12.589844 8.054688 C 12.589844 8.054688 12.359375 8.054688 11.929688 8.515625 C 11.503906 8.976562 11.601562 8.84375 11.503906 8.976562 C 11.40625 9.105469 11.4375 9.140625 11.207031 9.304688 C 10.976562 9.46875 10.878906 9.667969 10.878906 9.667969 L 10.515625 9.800781 L 10.21875 9.667969 C 10.21875 9.667969 9.953125 9.765625 9.988281 9.632812 C 9.996094 9.597656 10.011719 9.5625 10.027344 9.523438 Z M 13.972656 10.292969 L 13.839844 10.09375 L 13.972656 9.800781 L 14.289062 9.925781 L 14.289062 9.339844 L 14.59375 9.175781 L 14.84375 9.535156 L 15.230469 9.964844 L 14.972656 10.160156 L 14.289062 10.292969 L 14.289062 9.945312 Z M 18.257812 13.386719 C 18.335938 13.328125 18.589844 13.488281 18.589844 13.488281 C 18.589844 13.488281 19.410156 13.652344 19.542969 13.75 C 19.675781 13.847656 19.90625 13.914062 19.972656 14.015625 C 20.039062 14.113281 20.265625 14.410156 20.300781 14.507812 C 20.332031 14.605469 20.5 14.96875 20.53125 15.101562 C 20.566406 15.230469 20.664062 15.5625 20.761719 15.726562 C 20.859375 15.890625 21.421875 16.617188 21.617188 16.945312 L 22.210938 16.847656 C 22.210938 16.847656 22.144531 17.140625 22.078125 17.242188 C 22.015625 17.339844 21.816406 17.601562 21.71875 17.734375 C 21.617188 17.867188 21.488281 18.0625 21.289062 18.226562 C 21.09375 18.390625 21.089844 18.558594 20.992188 18.6875 C 20.894531 18.820312 20.761719 19.117188 20.761719 19.117188 C 20.761719 19.117188 20.828125 19.777344 20.859375 19.90625 C 20.894531 20.039062 20.628906 20.402344 20.628906 20.402344 L 20.332031 20.699219 L 19.9375 21.222656 L 19.96875 21.71875 C 19.96875 21.71875 19.667969 21.949219 19.503906 22.082031 C 19.339844 22.210938 19.367188 22.308594 19.234375 22.441406 C 19.105469 22.574219 18.589844 22.804688 18.457031 22.835938 C 18.324219 22.871094 17.597656 22.96875 17.597656 22.96875 L 17.597656 22.671875 L 17.582031 22.34375 C 17.582031 22.34375 17.484375 21.949219 17.386719 21.816406 C 17.285156 21.6875 17.328125 21.488281 17.164062 21.324219 C 17 21.160156 16.9375 21.027344 16.90625 20.929688 C 16.871094 20.828125 16.941406 20.535156 16.941406 20.535156 C 16.941406 20.535156 17.074219 20.171875 17.140625 20.039062 C 17.207031 19.90625 17.140625 19.710938 17.074219 19.578125 C 17.007812 19.445312 16.976562 19.117188 16.976562 19.019531 C 16.976562 18.921875 16.710938 18.753906 16.613281 18.65625 C 16.515625 18.558594 16.546875 18.425781 16.546875 18.296875 C 16.546875 18.160156 16.449219 17.867188 16.480469 17.636719 C 16.515625 17.40625 16.1875 17.570312 15.988281 17.636719 C 15.789062 17.703125 15.660156 17.570312 15.660156 17.371094 C 15.660156 17.171875 15.296875 17.339844 15.066406 17.46875 C 14.835938 17.601562 14.574219 17.601562 14.308594 17.699219 C 14.046875 17.800781 13.914062 17.601562 13.914062 17.601562 C 13.914062 17.601562 13.683594 17.40625 13.519531 17.304688 C 13.355469 17.207031 13.1875 17.011719 13.058594 16.84375 C 12.925781 16.679688 12.597656 16.1875 12.5625 15.988281 C 12.53125 15.792969 12.5625 15.660156 12.5625 15.429688 C 12.5625 15.199219 12.5625 15.066406 12.597656 14.902344 C 12.628906 14.738281 12.726562 14.539062 12.828125 14.375 C 12.925781 14.210938 13.289062 14.011719 13.386719 13.945312 C 13.484375 13.882812 13.714844 13.683594 13.714844 13.550781 C 13.714844 13.421875 13.847656 13.355469 13.914062 13.222656 C 13.980469 13.089844 14.210938 12.761719 14.507812 12.894531 C 14.507812 12.894531 14.769531 12.863281 14.867188 12.828125 C 14.964844 12.796875 15.230469 12.699219 15.359375 12.632812 C 15.492188 12.566406 15.820312 12.535156 15.820312 12.535156 C 15.820312 12.535156 16.078125 12.636719 16.175781 12.636719 C 16.277344 12.636719 16.597656 12.578125 16.597656 12.578125 C 16.597656 12.578125 16.746094 13.058594 16.746094 13.15625 C 16.746094 13.253906 16.84375 13.351562 17.007812 13.417969 C 17.171875 13.488281 17.929688 13.652344 18.257812 13.386719 Z M 22.039062 19.84375 C 22.039062 19.941406 22.007812 20.203125 21.972656 20.335938 C 21.9375 20.46875 21.875 20.699219 21.839844 20.828125 C 21.808594 20.960938 21.644531 21.226562 21.546875 21.292969 C 21.449219 21.355469 21.28125 21.554688 21.183594 21.585938 C 21.085938 21.621094 21.019531 21.355469 21.050781 21.226562 C 21.085938 21.09375 21.25 20.730469 21.25 20.730469 C 21.25 20.730469 21.28125 20.535156 21.316406 20.402344 C 21.347656 20.269531 21.742188 20.105469 21.742188 20.105469 L 22.007812 19.613281 C 22.007812 19.613281 22.039062 19.746094 22.039062 19.84375 Z M 7.433594 17.878906 C 7.476562 17.890625 7.535156 17.921875 7.621094 18 C 7.746094 18.105469 7.820312 18.164062 7.984375 18.230469 C 8.148438 18.296875 8.214844 18.394531 8.414062 18.492188 C 8.609375 18.589844 8.542969 18.527344 8.808594 18.820312 C 9.070312 19.117188 9.039062 19.117188 9.105469 19.28125 C 9.167969 19.449219 9.269531 19.613281 9.335938 19.710938 C 9.402344 19.808594 9.597656 19.875 9.695312 19.941406 C 9.792969 20.007812 9.960938 20.074219 10.058594 20.074219 C 10.15625 20.074219 10.453125 20.371094 10.617188 20.402344 C 10.78125 20.4375 10.78125 20.765625 10.78125 20.765625 L 10.617188 21.226562 L 10.484375 21.71875 L 10.617188 22.113281 C 10.617188 22.113281 10.421875 22.28125 10.289062 22.28125 C 10.167969 22.28125 10.128906 22.355469 9.992188 22.320312 C 8.738281 21.148438 7.828125 19.613281 7.433594 17.878906 Z M 7.433594 17.878906 "/>
</g>
  </symbol>
  <symbol id="social/yt" viewBox="0 0 34 34" width="34pt" height="34pt">
    <g xmlns="http://www.w3.org/2000/svg" id="surface1">
<path style=" stroke:none;fill-rule:evenodd;fill:rgb(100%,0%,0%);fill-opacity:1;" d="M 0 17 C 0 7.609375 7.609375 0 17 0 C 26.390625 0 34 7.609375 34 17 C 34 26.390625 26.390625 34 17 34 C 7.609375 34 0 26.390625 0 17 Z M 0 17 "/>
<path style=" stroke:none;fill-rule:evenodd;fill:rgb(100%,100%,100%);fill-opacity:1;" d="M 25.6875 12.800781 C 25.480469 12 24.867188 11.367188 24.085938 11.15625 C 22.671875 10.765625 17 10.765625 17 10.765625 C 17 10.765625 11.332031 10.765625 9.917969 11.15625 C 9.136719 11.367188 8.523438 12 8.3125 12.800781 C 7.933594 14.253906 7.933594 17.28125 7.933594 17.28125 C 7.933594 17.28125 7.933594 20.3125 8.3125 21.765625 C 8.523438 22.566406 9.136719 23.195312 9.917969 23.410156 C 11.332031 23.800781 17 23.800781 17 23.800781 C 17 23.800781 22.671875 23.800781 24.085938 23.410156 C 24.867188 23.195312 25.480469 22.566406 25.6875 21.765625 C 26.066406 20.3125 26.066406 17.28125 26.066406 17.28125 C 26.066406 17.28125 26.066406 14.253906 25.6875 12.800781 Z M 25.6875 12.800781 "/>
<path style=" stroke:none;fill-rule:evenodd;fill:rgb(100%,0%,0%);fill-opacity:1;" d="M 15.300781 20.402344 L 15.300781 14.734375 L 19.832031 17.566406 Z M 15.300781 20.402344 "/>
</g>
  </symbol>
  <symbol id="star" viewBox="0 0 17 18" width="17" height="18">
    <path d="M4.41588 17.124C3.87647 17.4836 3.16571 17.0357 3.25739 16.3939L3.95436 11.5152L0.469526 8.03033C0.0325103 7.59331 0.281968 6.84494 0.89379 6.75754L5.72653 6.06715L7.8105 1.20456C8.07025 0.59848 8.92947 0.59848 9.18921 1.20456L11.2732 6.06715L16.1059 6.75754C16.7177 6.84494 16.9672 7.59331 16.5302 8.03033L13.0454 11.5152L13.7423 16.3939C13.834 17.0357 13.1232 17.4836 12.5838 17.124L8.49986 14.4014L4.41588 17.124ZM4.97949 14.9455L8.08378 12.876C8.3357 12.708 8.6639 12.708 8.91583 12.876L12.0201 14.9455L11.5073 11.3561C11.474 11.1224 11.5525 10.8866 11.7195 10.7197L14.4088 8.03034L10.6437 7.49247C10.3846 7.45546 10.1635 7.28603 10.0604 7.04545L8.4998 3.40396L6.93916 7.04545C6.83605 7.28603 6.61498 7.45546 6.35587 7.49247L2.59079 8.03034L5.28013 10.7197C5.44706 10.8866 5.52565 11.1224 5.49226 11.3561L4.97949 14.9455Z"/>
  </symbol>
  <symbol id="tick" viewBox="0 0 16 12" width="16" height="12">
    <path fill-rule="evenodd" clip-rule="evenodd" d="M1.70356 3.97202C1.31108 3.58346 0.677922 3.58663 0.289359 3.97911C-0.0992033 4.37158 -0.0960311 5.00474 0.296445 5.3933L6.12179 11.1606C6.53306 11.5677 7.20302 11.5418 7.58164 11.1042L15.7563 1.65425C16.1176 1.23656 16.0719 0.605045 15.6542 0.243723C15.2365 -0.1176 14.605 -0.0719057 14.2437 0.345784L6.76881 8.98677L1.70356 3.97202Z" fill="#00B7FF"/>
  </symbol>
  <symbol id="user-add" viewBox="0 0 24 24" width="24" height="24">
    <path fill-rule="evenodd" clip-rule="evenodd" d="M9.79685 11.5996C12.006 11.5996 13.7968 9.80875 13.7968 7.59961C13.7968 5.39047 12.006 3.59961 9.79685 3.59961C7.58771 3.59961 5.79685 5.39047 5.79685 7.59961C5.79685 9.80875 7.58771 11.5996 9.79685 11.5996ZM17.6868 18.1497C17.8427 18.4592 17.8273 18.8274 17.646 19.1228C17.4647 19.4182 17.1434 19.5986 16.7968 19.5997H2.79678C2.45019 19.5986 2.12885 19.4182 1.94754 19.1228C1.76623 18.8274 1.75081 18.4592 1.90678 18.1497L3.34678 15.2597C3.85558 14.2405 4.89768 13.5975 6.03678 13.5997H13.5568C14.6959 13.5975 15.738 14.2405 16.2468 15.2597L17.6868 18.1497ZM20.7969 9.59961H23.2969C23.573 9.59961 23.7969 9.82347 23.7969 10.0996V11.0996C23.7969 11.3758 23.573 11.5996 23.2969 11.5996H20.7969V14.0996C20.7969 14.3758 20.573 14.5996 20.2969 14.5996H19.2969C19.0207 14.5996 18.7969 14.3758 18.7969 14.0996V11.5996H16.2969C16.0207 11.5996 15.7969 11.3758 15.7969 11.0996V10.0996C15.7969 9.82347 16.0207 9.59961 16.2969 9.59961H18.7969V7.09961C18.7969 6.82347 19.0207 6.59961 19.2969 6.59961H20.2969C20.573 6.59961 20.7969 6.82347 20.7969 7.09961V9.59961Z"/>
  </symbol>
  <symbol id="user" viewBox="0 0 24 24" width="24" height="24">
    <path fill-rule="evenodd" clip-rule="evenodd" d="M7.76923 7.82353C7.76923 5.15957 9.88727 3 12.5 3C15.1127 3 17.2308 5.15957 17.2308 7.82353C17.2308 9.49625 16.3957 10.9701 15.1274 11.8353C17.9737 12.9209 20 15.7192 20 19V21H5V19C5 15.7192 7.02635 12.9209 9.87257 11.8353C8.6043 10.9701 7.76923 9.49625 7.76923 7.82353ZM12.4998 10.5294C13.9655 10.5294 15.1537 9.31795 15.1537 7.82353C15.1537 6.32911 13.9655 5.11765 12.4998 5.11765C11.0342 5.11765 9.84599 6.32911 9.84599 7.82353C9.84599 9.31795 11.0342 10.5294 12.4998 10.5294ZM12.5001 13.4706C9.54358 13.4706 7.13963 15.8829 7.07823 18.8824H17.922C17.8606 15.8829 15.4566 13.4706 12.5001 13.4706Z"/>
  </symbol>
  <symbol id="view" viewBox="0 0 24 24" width="24" height="24">
    <path fill-rule="evenodd" clip-rule="evenodd" d="M2.10999 11.4375C3.95424 6.90818 7.75922 4 12 4C16.2408 4 20.0458 6.90818 21.89 11.4375C22.0367 11.7976 22.0367 12.2024 21.89 12.5625C20.0458 17.0918 16.2408 20 12 20C7.75922 20 3.95424 17.0918 2.10999 12.5625C1.96334 12.2024 1.96334 11.7976 2.10999 11.4375ZM11.9998 18.15C15.4188 18.15 18.5535 15.7871 20.1497 12.0004C18.5535 8.21362 15.4188 5.85071 11.9998 5.85071C8.58073 5.85071 5.44603 8.21362 3.84986 12.0004C5.44603 15.7871 8.58073 18.15 11.9998 18.15ZM12 15.6465C10.0212 15.6465 8.41712 14.014 8.41712 12.0002C8.41712 9.98643 10.0212 8.35394 12 8.35394C13.9788 8.35394 15.5829 9.98643 15.5829 12.0002C15.5829 14.014 13.9788 15.6465 12 15.6465ZM12.0003 13.7958C12.9749 13.7958 13.765 12.9918 13.765 11.9999C13.765 11.008 12.9749 10.204 12.0003 10.204C11.0257 10.204 10.2356 11.008 10.2356 11.9999C10.2356 12.9918 11.0257 13.7958 12.0003 13.7958Z"/>
  </symbol>
  <symbol id="vote/vote-down-active" viewBox="0 0 6.35 6.35" width="24" height="24">
    <g xmlns="http://www.w3.org/2000/svg" clip-rule="evenodd" display="none" fill-rule="evenodd" stroke-width=".26458">
      <path d="m6.35 3.175c0 1.7535-1.4215 3.175-3.175 3.175-1.7535 0-3.175-1.4215-3.175-3.175 1.533e-7 -1.7535 1.4215-3.175 3.175-3.175 1.7535 1.533e-7 3.175 1.4215 3.175 3.175z" fill="#bfecff"/>
      <path d="m3.175 2.7554-1.1358 1.1358c-0.10333 0.10332-0.27085 0.10332-0.37418 0-0.10333-0.10332-0.10333-0.27085 0-0.37417l1.3229-1.3229c0.10332-0.10333 0.27085-0.10333 0.37417 0l1.3229 1.3229c0.10332 0.10332 0.10332 0.27085 0 0.37417s-0.27085 0.10332-0.37417 0z" fill="#fffff8"/>
    </g>
    <g xmlns="http://www.w3.org/2000/svg" transform="scale(.26458)" fill="none">
      <path d="m0 12c0-6.6274 5.3726-12 12-12 6.6274 0 12 5.3726 12 12 0 6.6274-5.3726 12-12 12-6.6274 0-12-5.3726-12-12z" clip-rule="evenodd" fill="#ffbfbf" fill-rule="evenodd"/>
      <path d="m0.5 12c0-6.3513 5.1487-11.5 11.5-11.5 6.3513 0 11.5 5.1487 11.5 11.5 0 6.3513-5.1487 11.5-11.5 11.5-6.3513 0-11.5-5.1487-11.5-11.5z" display="none" stroke="#fffcff"/>
      <path d="m0.5 12c0-6.3513 5.1487-11.5 11.5-11.5 6.3513 0 11.5 5.1487 11.5 11.5 0 6.3513-5.1487 11.5-11.5 11.5-6.3513 0-11.5-5.1487-11.5-11.5z" display="none" stroke="#f00" stroke-opacity=".25"/>
      <path d="m12 13.586 4.2929-4.2929c0.3905-0.39052 1.0237-0.39052 1.4142 0 0.3905 0.39053 0.3905 1.0237 0 1.4142l-5 5c-0.3905 0.3905-1.0237 0.3905-1.4142 0l-5-5c-0.39052-0.3905-0.39052-1.0237 0-1.4142 0.39053-0.39052 1.0237-0.39052 1.4142 0z" clip-rule="evenodd" fill="#fff" fill-rule="evenodd"/>
    </g>
  </symbol>
  <symbol id="vote/vote-down" viewBox="0 0 6.35 6.35" width="24" height="24">
    <g xmlns="http://www.w3.org/2000/svg" display="none" stroke-width=".26458">
      <path d="m6.2177 3.175c0 1.6804-1.3623 3.0427-3.0427 3.0427-1.6804 0-3.0427-1.3623-3.0427-3.0427 2.7e-7 -1.6804 1.3623-3.0427 3.0427-3.0427 1.6804 2.6e-7 3.0427 1.3623 3.0427 3.0427z" fill="none" stroke="#fff"/>
      <path d="m6.35 3.175c0 1.7535-1.4215 3.175-3.175 3.175-1.7535 0-3.175-1.4215-3.175-3.175 1.533e-7 -1.7535 1.4215-3.175 3.175-3.175 1.7535 1.533e-7 3.175 1.4215 3.175 3.175z" clip-rule="evenodd" fill="#fff" fill-rule="evenodd"/>
      <path d="m6.2177 3.175c0 1.6804-1.3623 3.0427-3.0427 3.0427-1.6804 0-3.0427-1.3623-3.0427-3.0427 2.7e-7 -1.6804 1.3623-3.0427 3.0427-3.0427 1.6804 2.6e-7 3.0427 1.3623 3.0427 3.0427z" fill="none" stroke="#00b7ff" stroke-opacity=".25"/>
      <path d="m3.175 2.7554-1.1358 1.1358c-0.10333 0.10332-0.27085 0.10332-0.37418 0-0.10333-0.10332-0.10333-0.27085 0-0.37417l1.3229-1.3229c0.10332-0.10333 0.27085-0.10333 0.37417 0l1.3229 1.3229c0.10332 0.10332 0.10332 0.27085 0 0.37417s-0.27085 0.10332-0.37417 0z" clip-rule="evenodd" fill="#979797" fill-rule="evenodd"/>
    </g>
    <g xmlns="http://www.w3.org/2000/svg" transform="scale(.26458)" fill="none">
      <path d="m0 12c0-6.6274 5.3726-12 12-12 6.6274 0 12 5.3726 12 12 0 6.6274-5.3726 12-12 12-6.6274 0-12-5.3726-12-12z" clip-rule="evenodd" fill="#fff" fill-rule="evenodd"/>
      <path d="m0.5 12c0-6.3513 5.1487-11.5 11.5-11.5 6.3513 0 11.5 5.1487 11.5 11.5 0 6.3513-5.1487 11.5-11.5 11.5-6.3513 0-11.5-5.1487-11.5-11.5z" stroke="#f00" stroke-opacity=".25"/>
      <path d="m12 13.586 4.2929-4.2929c0.3905-0.39052 1.0237-0.39052 1.4142 0 0.3905 0.39053 0.3905 1.0237 0 1.4142l-5 5c-0.3905 0.3905-1.0237 0.3905-1.4142 0l-5-5c-0.39052-0.3905-0.39052-1.0237 0-1.4142 0.39053-0.39052 1.0237-0.39052 1.4142 0z" clip-rule="evenodd" fill="#92929d" fill-rule="evenodd"/>
    </g>
  </symbol>
  <symbol id="vote/vote-up-active" viewBox="0 0 6.35 6.35" width="24" height="24">
    <g xmlns="http://www.w3.org/2000/svg" clip-rule="evenodd" fill-rule="evenodd" stroke-width=".26458">
      <path d="m6.35 3.175c0 1.7535-1.4215 3.175-3.175 3.175-1.7535 0-3.175-1.4215-3.175-3.175 1.533e-7 -1.7535 1.4215-3.175 3.175-3.175 1.7535 1.533e-7 3.175 1.4215 3.175 3.175z" fill="#bfecff"/>
      <path d="m3.175 2.7554-1.1358 1.1358c-0.10333 0.10332-0.27085 0.10332-0.37418 0-0.10333-0.10332-0.10333-0.27085 0-0.37417l1.3229-1.3229c0.10332-0.10333 0.27085-0.10333 0.37417 0l1.3229 1.3229c0.10332 0.10332 0.10332 0.27085 0 0.37417s-0.27085 0.10332-0.37417 0z" fill="#fffff8"/>
    </g>
    <g xmlns="http://www.w3.org/2000/svg" transform="scale(.26458)" display="none" fill="none">
      <path d="m0 12c0-6.6274 5.3726-12 12-12 6.6274 0 12 5.3726 12 12 0 6.6274-5.3726 12-12 12-6.6274 0-12-5.3726-12-12z" clip-rule="evenodd" fill="#ffbfbf" fill-rule="evenodd"/>
      <path d="m0.5 12c0-6.3513 5.1487-11.5 11.5-11.5 6.3513 0 11.5 5.1487 11.5 11.5 0 6.3513-5.1487 11.5-11.5 11.5-6.3513 0-11.5-5.1487-11.5-11.5z" stroke="#fffcff"/>
      <path d="m0.5 12c0-6.3513 5.1487-11.5 11.5-11.5 6.3513 0 11.5 5.1487 11.5 11.5 0 6.3513-5.1487 11.5-11.5 11.5-6.3513 0-11.5-5.1487-11.5-11.5z" stroke="#f00" stroke-opacity=".25"/>
      <path d="m12 13.586 4.2929-4.2929c0.3905-0.39052 1.0237-0.39052 1.4142 0 0.3905 0.39053 0.3905 1.0237 0 1.4142l-5 5c-0.3905 0.3905-1.0237 0.3905-1.4142 0l-5-5c-0.39052-0.3905-0.39052-1.0237 0-1.4142 0.39053-0.39052 1.0237-0.39052 1.4142 0z" clip-rule="evenodd" fill="#fff" fill-rule="evenodd"/>
    </g>
  </symbol>
  <symbol id="vote/vote-up" viewBox="0 0 6.35 6.35" width="24" height="24">
    <g xmlns="http://www.w3.org/2000/svg" stroke-width=".26458">
      <path d="m6.2177 3.175c0 1.6804-1.3623 3.0427-3.0427 3.0427-1.6804 0-3.0427-1.3623-3.0427-3.0427 2.7e-7 -1.6804 1.3623-3.0427 3.0427-3.0427 1.6804 2.6e-7 3.0427 1.3623 3.0427 3.0427z" fill="none" stroke="#fff"/>
      <path d="m6.35 3.175c0 1.7535-1.4215 3.175-3.175 3.175-1.7535 0-3.175-1.4215-3.175-3.175 1.533e-7 -1.7535 1.4215-3.175 3.175-3.175 1.7535 1.533e-7 3.175 1.4215 3.175 3.175z" clip-rule="evenodd" fill="#fff" fill-rule="evenodd"/>
      <path d="m6.2177 3.175c0 1.6804-1.3623 3.0427-3.0427 3.0427-1.6804 0-3.0427-1.3623-3.0427-3.0427 2.7e-7 -1.6804 1.3623-3.0427 3.0427-3.0427 1.6804 2.6e-7 3.0427 1.3623 3.0427 3.0427z" fill="none" stroke="#00b7ff" stroke-opacity=".25"/>
      <path d="m3.175 2.7554-1.1358 1.1358c-0.10333 0.10332-0.27085 0.10332-0.37418 0-0.10333-0.10332-0.10333-0.27085 0-0.37417l1.3229-1.3229c0.10332-0.10333 0.27085-0.10333 0.37417 0l1.3229 1.3229c0.10332 0.10332 0.10332 0.27085 0 0.37417s-0.27085 0.10332-0.37417 0z" clip-rule="evenodd" fill="#979797" fill-rule="evenodd"/>
    </g>
  </symbol>
</svg>
