<svg width="16" height="19" viewBox="0 0 16 19" fill="none" xmlns="http://www.w3.org/2000/svg">
  <path fill-rule="evenodd" clip-rule="evenodd" d="M1.71391 8.29446L8.23917 1.7692C9.93144 0.076932 12.6752 0.076932 14.3674 1.7692C16.0597 3.46148 16.0597 6.20519 14.3674 7.89746L7.84217 14.4227C6.79726 15.4205 5.14126 15.4062 4.11438 14.3793C3.07298 13.3379 3.07298 11.6494 4.11438 10.608L10.5962 4.12623C10.9867 3.7357 11.6199 3.7357 12.0104 4.12623C12.4009 4.51675 12.4009 5.14992 12.0104 5.54044L5.5286 12.0223C5.26825 12.2826 5.26825 12.7047 5.5286 12.9651C5.78895 13.2254 6.21105 13.2254 6.4714 12.9651L12.9532 6.48325C13.8644 5.57203 13.8644 4.09464 12.9532 3.18342C12.042 2.27219 10.5646 2.27219 9.65339 3.18342L3.17157 9.66523C1.60948 11.2273 1.60948 13.76 3.17157 15.3221C4.73367 16.8842 7.26633 16.8842 8.82843 15.3221L14.1317 10.0188C14.5223 9.62826 15.1554 9.62826 15.5459 10.0188C15.9365 10.4093 15.9365 11.0425 15.5459 11.433L10.2426 16.7363C7.89949 19.0794 4.1005 19.0794 1.75736 16.7363C-0.571287 14.4077 -0.585697 10.6411 1.71413 8.29468L1.71391 8.29446Z" fill="#92929D"/>
</svg>
