<svg width="25" height="28" viewBox="0 0 25 28" xmlns="http://www.w3.org/2000/svg">
<path fill-rule="evenodd" clip-rule="evenodd" d="M15.6042 5.89017C15.4193 4.2435 14.1006 2.9668 12.5013 2.9668C10.902 2.9668 9.58333 4.24351 9.39849 5.89018C6.79156 7.14605 4.97821 9.93568 4.97821 13.1754V18.7297L3.23811 22.3932C2.88839 23.1295 3.39194 23.999 4.16802 23.999H9.55415C9.98313 25.2888 11.1407 26.2129 12.5013 26.2129C13.862 26.2129 15.0195 25.2888 15.4485 23.999H20.8347C21.6108 23.999 22.1143 23.1295 21.7646 22.3932L20.0245 18.7297V13.1754C20.0245 9.93566 18.2111 7.14603 15.6042 5.89017ZM12.5013 23.999L12.4926 23.999H12.5101L12.5013 23.999ZM18.053 19.492L19.1421 21.785H5.86075L6.94989 19.492C7.02336 19.3374 7.06164 19.1665 7.06164 18.9932V13.1753C7.06164 9.9827 9.49712 7.39456 12.5014 7.39456C15.5058 7.39456 17.9413 9.9827 17.9413 13.1753V18.9932C17.9413 19.1665 17.9795 19.3374 18.053 19.492Z"/>
</svg>

