<?xml version="1.0" encoding="UTF-8" standalone="no"?>
<svg
   xmlns:osb="http://www.openswatchbook.org/uri/2009/osb"
   xmlns:dc="http://purl.org/dc/elements/1.1/"
   xmlns:cc="http://creativecommons.org/ns#"
   xmlns:rdf="http://www.w3.org/1999/02/22-rdf-syntax-ns#"
   xmlns:svg="http://www.w3.org/2000/svg"
   xmlns="http://www.w3.org/2000/svg"
   id="svg8"
   version="1.1"
   viewBox="0 0 6.3499999 6.3500002"
   height="24"
   width="24">
  <defs
     id="defs2">
    <linearGradient
       osb:paint="solid"
       id="linearGradient4613">
      <stop
         id="stop4611"
         offset="0"
         style="stop-color:#000000;stop-opacity:1;" />
    </linearGradient>
  </defs>
  <metadata
     id="metadata5">
    <rdf:RDF>
      <cc:Work
         rdf:about="">
        <dc:format>image/svg+xml</dc:format>
        <dc:type
           rdf:resource="http://purl.org/dc/dcmitype/StillImage" />
        <dc:title></dc:title>
      </cc:Work>
    </rdf:RDF>
  </metadata>
  <g
     transform="translate(0,-290.64998)"
     id="layer1">
    <g
       transform="matrix(0.26458333,0,0,0.26458333,-0.93689486,291.87992)"
       id="g3737"
       style="fill-opacity:1">
      <path
         style="clip-rule:evenodd;fill-opacity:1;fill-rule:evenodd"
         d="m 11.47851,-1.8663268 h 8.12495 c 1.841,0 3.3334,1.49238394 3.3334,3.333334 V 14.902456 c 0,0.9204 -0.7462,1.6666 -1.6667,1.6666 -0.3785,0 -0.7457,-0.1288 -1.0412,-0.3652 l -4.688,-3.7509 -4.68788,3.7509 c -0.71873,0.575 -1.7675599,0.4585 -2.3426199,-0.2602 -0.23646,-0.2955 -0.36528,-0.6627 -0.36528,-1.0412 V 1.4670072 c 0,-1.84095006 1.4923801,-3.333334 3.3333299,-3.333334 z m 6e-5,1.66672394 c -0.92048,0 -1.6666698,0.74619 -1.6666698,1.66667006 V 14.902456 l 4.6879198,-3.7508 c 0.60874,-0.487 1.47374,-0.487 2.08244,0 l 4.688,3.7508 V 1.4670672 c 0,-0.92048006 -0.7462,-1.66667006 -1.6667,-1.66667006 z"
         id="path3726" />
    </g>
  </g>
</svg>
