<svg width="21" height="22" viewBox="0 0 21 22" xmlns="http://www.w3.org/2000/svg">
    <path fill-rule="evenodd" clip-rule="evenodd"
          d="M6.61292 0H14.1705C17.8228 0 20.7835 3.13401 20.7835 7V15C20.7835 18.866 17.8228 22 14.1705 22H6.61292C2.96071 22 0 18.866 0 15V7C0 3.13401 2.96071 0 6.61292 0ZM6.61292 2C4.0042 2 1.88941 4.23858 1.88941 7V15C1.88941 17.7614 4.0042 20 6.61292 20H14.1705C16.7793 20 18.8941 17.7614 18.8941 15V7C18.8941 4.23858 16.7793 2 14.1705 2H6.61292ZM7.26636 10.2784L9.41188 12.5203L13.4316 7.36355C13.7637 6.93756 14.3591 6.87718 14.7616 7.22868C15.164 7.58018 15.221 8.21046 14.889 8.63645L10.2119 14.6364C9.85873 15.0895 9.21447 15.1243 8.81956 14.7117L5.93903 11.7018C5.56772 11.3138 5.56384 10.6806 5.93038 10.2876C6.29691 9.89453 6.89505 9.89043 7.26636 10.2784Z"/>
</svg>
