<?xml version="1.0" encoding="UTF-8"?>
<svg width="24" height="24" version="1.1" viewBox="0 0 6.35 6.35" xmlns="http://www.w3.org/2000/svg" xmlns:cc="http://creativecommons.org/ns#" xmlns:dc="http://purl.org/dc/elements/1.1/" xmlns:osb="http://www.openswatchbook.org/uri/2009/osb" xmlns:rdf="http://www.w3.org/1999/02/22-rdf-syntax-ns#"><metadata><rdf:RDF><cc:Work rdf:about=""><dc:format>image/svg+xml</dc:format><dc:type rdf:resource="http://purl.org/dc/dcmitype/StillImage"/><dc:title/></cc:Work></rdf:RDF></metadata><g transform="matrix(.26458 0 0 .26458 -5.3362e-6 -5.5e-8)" style=""><path d="m9.0943 3.3391c0.28928-1.3632 1.5015-2.3391 2.9057-2.3391s2.6164 0.97584 2.9057 2.3391l0.0563 0.2655c1.0567 0.36644 2.0369 0.92561 2.8877 1.652l0.2577-0.08362c1.3346-0.43307 2.7926 0.12055 3.4947 1.327s0.4564 2.7359-0.589 3.6661l-0.2018 0.1796c0.2087 1.0942 0.2067 2.216-0.0018 3.3071l0.2036 0.1811c1.0454 0.9302 1.2911 2.4596 0.589 3.6661s-2.1601 1.7601-3.4947 1.327l-0.2585-0.0839c-0.4213 0.359-0.8779 0.6803-1.3662 0.96-0.4882 0.2796-0.997 0.5113-1.521 0.6938l-0.056 0.264c-0.2893 1.3633-1.5015 2.3391-2.9057 2.3391s-2.6164-0.9758-2.9057-2.3391l-0.05634-0.2655c-1.0567-0.3664-2.0369-0.9256-2.8876-1.652l-0.2577 0.0836c-1.3346 0.4331-2.7926-0.1205-3.4947-1.327s-0.45639-2.7359 0.58895-3.6661l0.20185-0.1796c-0.20872-1.0942-0.20672-2.216 0.00174-3.3071l-0.20359-0.1811c-1.0453-0.93017-1.291-2.4596-0.58895-3.6661s2.16-1.7601 3.4947-1.327l0.2585 0.08388c0.42126-0.35894 0.87789-0.68026 1.3662-0.95993s0.99706-0.51134 1.521-0.69382zm2.9057-0.33907c-0.4509 0-0.8402 0.31335-0.933 0.75109l-0.1777 0.83725c-0.0778 0.36672-0.3558 0.6595-0.7201 0.75848-0.57009 0.15487-1.1214 0.38284-1.644 0.68216s-0.99723 0.65904-1.4174 1.0714c-0.26857 0.26354-0.66312 0.35598-1.0222 0.23948l-0.81967-0.26598c-0.42856-0.13906-0.89671 0.03872-1.1222 0.42612s-0.14655 0.87852 0.18912 1.1772l0.64364 0.57273c0.28136 0.25036 0.39791 0.63585 0.30188 0.99847-0.30385 1.1476-0.30707 2.3545-0.00185 3.504 0.09635 0.3628-0.02015 0.7486-0.3017 0.9992l-0.64197 0.5712c-0.33567 0.2987-0.41457 0.7898-0.18912 1.1772s0.6936 0.5652 1.1222 0.4261l0.81962-0.2659c0.35947-0.1167 0.7545-0.0239 1.0231 0.2403 0.85078 0.837 1.9059 1.4377 3.0596 1.7504 0.3646 0.0988 0.6428 0.3917 0.7206 0.7586l0.1782 0.8394c0.0928 0.4378 0.4821 0.7511 0.933 0.7511s0.8402-0.3133 0.933-0.7511l0.1777-0.8372c0.0778-0.3668 0.3558-0.6595 0.7201-0.7585 0.5701-0.1549 1.1214-0.3829 1.644-0.6822s0.9972-0.659 1.4174-1.0714c0.2686-0.2635 0.6632-0.356 1.0222-0.2395l0.8197 0.266c0.4285 0.1391 0.8967-0.0387 1.1221-0.4261 0.2255-0.3874 0.1466-0.8785-0.1891-1.1772l-0.6436-0.5727c-0.2814-0.2504-0.3979-0.6359-0.3019-0.9985 0.3038-1.1476 0.3071-2.3545 0.0018-3.504-0.0963-0.36281 0.0202-0.74863 0.3017-0.99916l0.642-0.57124c0.3357-0.29868 0.4146-0.7898 0.1891-1.1772-0.2254-0.3874-0.6936-0.56518-1.1221-0.42612l-0.8197 0.26596c-0.3594 0.11665-0.7545 0.02383-1.023-0.24037-0.8508-0.83697-1.9059-1.4377-3.0596-1.7504-0.3646-0.09883-0.6428-0.39171-0.7206-0.75864l-0.1782-0.83937c-0.0928-0.43774-0.4821-0.75109-0.933-0.75109zm0 12.632c2.0216 0 3.6605-1.6259 3.6605-3.6316 0-2.0057-1.6389-3.6316-3.6605-3.6316-2.0216 0-3.6605 1.6259-3.6605 3.6316 0 2.0057 1.6388 3.6316 3.6605 3.6316zm0-2c-0.9083 0-1.6446-0.7305-1.6446-1.6316s0.7363-1.6316 1.6446-1.6316 1.6446 0.7305 1.6446 1.6316-0.7363 1.6316-1.6446 1.6316z" clip-rule="evenodd" fill-rule="evenodd"/></g></svg>
