<svg width="20" height="20" viewBox="0 0 20 20" fill="none" xmlns="http://www.w3.org/2000/svg">
<path fill-rule="evenodd" clip-rule="evenodd" d="M6.66536 0.833984H13.332C16.5537 0.833984 19.1654 3.44566 19.1654 6.66732V13.334C19.1654 16.5556 16.5537 19.1673 13.332 19.1673H6.66536C3.4437 19.1673 0.832031 16.5556 0.832031 13.334V6.66732C0.832031 3.44566 3.4437 0.833984 6.66536 0.833984ZM6.66536 2.50065C4.36418 2.50065 2.4987 4.36613 2.4987 6.66732V13.334C2.4987 15.6352 4.36418 17.5007 6.66536 17.5007H13.332C15.6332 17.5007 17.4987 15.6352 17.4987 13.334V6.66732C17.4987 4.36613 15.6332 2.50065 13.332 2.50065H6.66536ZM6.90944 8.08991L8.67721 9.85767L6.90944 11.6254C6.58401 11.9509 6.58401 12.4785 6.90944 12.804C7.23488 13.1294 7.76252 13.1294 8.08795 12.804L9.85572 11.0362L11.6235 12.804C11.9489 13.1294 12.4766 13.1294 12.802 12.804C13.1274 12.4785 13.1274 11.9509 12.802 11.6254L11.0342 9.85767L12.802 8.08991C13.1274 7.76447 13.1274 7.23683 12.802 6.9114C12.4766 6.58596 11.9489 6.58596 11.6235 6.9114L9.85572 8.67916L8.08795 6.9114C7.76252 6.58596 7.23488 6.58596 6.90944 6.9114C6.58401 7.23683 6.58401 7.76447 6.90944 8.08991Z" fill="#B5B5BE"/>
</svg>


