<svg width="20" height="20" viewBox="0 0 20 20" xmlns="http://www.w3.org/2000/svg">
<path fill-rule="evenodd" clip-rule="evenodd" d="M18.1061 1.88554C17.8059 1.59183 17.3236 1.59449 17.0267 1.89152L13.973 4.94682C12.757 4.29571 11.4058 3.93967 10.0013 3.93967C6.47997 3.93967 3.29386 6.1776 1.73314 9.69287C1.64624 9.8886 1.64624 10.112 1.73314 10.3077C2.43811 11.8955 3.4747 13.2227 4.72402 14.2008L1.89052 17.0358C1.59143 17.3351 1.59416 17.8192 1.89655 18.1151C2.19671 18.4088 2.67905 18.4062 2.97591 18.1091L6.02964 15.0538C7.24562 15.7049 8.5968 16.0609 10.0013 16.0609C13.5226 16.0609 16.7087 13.823 18.2695 10.3077C18.3564 10.112 18.3564 9.8886 18.2695 9.69287C17.5645 8.10506 16.5279 6.77786 15.2786 5.79979L18.1121 2.96481C18.4112 2.66557 18.4084 2.18144 18.1061 1.88554ZM12.8428 6.07763C11.9531 5.67244 10.9916 5.4548 10.0013 5.4548C7.1993 5.4548 4.62752 7.19728 3.26105 10.0003C3.88714 11.2845 4.76628 12.3462 5.80465 13.1196L7.38805 11.5353C7.12302 11.0851 6.971 10.5604 6.971 10.0002C6.971 8.32663 8.32771 6.96992 10.0013 6.96992C10.5609 6.96992 11.0851 7.12162 11.535 7.38615L12.8428 6.07763ZM12.6146 8.46523L14.198 6.88098C15.2364 7.65439 16.1155 8.71601 16.7415 10.0003C15.3751 12.8032 12.8033 14.5457 10.0013 14.5457C9.01106 14.5457 8.04957 14.3281 7.15987 13.9229L8.46772 12.6144C8.91758 12.8789 9.44173 13.0305 10.0013 13.0305C11.6749 13.0305 13.0316 11.6738 13.0316 10.0002C13.0316 9.44006 12.8796 8.9154 12.6146 8.46523ZM10.387 8.53474C10.2639 8.50242 10.1346 8.4852 10.0013 8.4852C9.16452 8.4852 8.48616 9.16356 8.48616 10.0004C8.48616 10.1339 8.50345 10.2635 8.5359 10.3869L10.387 8.53474ZM9.61552 11.466L11.4667 9.61378C11.4992 9.73719 11.5165 9.86675 11.5165 10.0004C11.5165 10.8372 10.8381 11.5155 10.0013 11.5155C9.86799 11.5155 9.7387 11.4983 9.61552 11.466Z"/>
</svg>
