<svg width="20" height="20" viewBox="0 0 20 20" xmlns="http://www.w3.org/2000/svg">
<path fill-rule="evenodd" clip-rule="evenodd" d="M14.8845 6.3305L15.8134 5.40154L13.7659 3.35399L12.8369 4.28295L14.8845 6.3305ZM13.7121 7.50283L11.6645 5.45528L4.00495 13.1148L3.53369 15.6337L6.0525 15.1624L13.7121 7.50283ZM17.0352 4.27865C17.6554 4.89875 17.6554 5.90414 17.0352 6.52425L7.04344 16.5161C6.92524 16.6343 6.77405 16.714 6.60973 16.7447L2.64879 17.4858C2.07602 17.593 1.57437 17.0913 1.68153 16.5185L2.42261 12.5576C2.45335 12.3933 2.53306 12.2421 2.65126 12.1239L12.6431 2.13207C13.2632 1.51197 14.2686 1.51197 14.8887 2.13207L17.0352 4.27865ZM16.6752 17.5005H9.99208C8.89197 17.5005 8.89197 15.8338 9.99208 15.8338H16.6752C17.7754 15.8338 17.7754 17.5005 16.6752 17.5005Z" />
</svg>

