<svg width="19" height="23" viewBox="0 0 19 23" fill="none" xmlns="http://www.w3.org/2000/svg">
<path fill-rule="evenodd" clip-rule="evenodd" d="M0.125 10.0912C0.125 4.98444 4.32611 0.851562 9.5 0.851562C14.6739 0.851562 18.875 4.98444 18.875 10.0912C18.875 12.6137 17.8431 14.9762 16.0573 16.6946L10.2306 22.4274C9.82519 22.8263 9.17488 22.8263 8.76949 22.4275L2.93474 16.6874C1.15046 14.9619 0.125 12.6059 0.125 10.0912ZM14.6045 15.2015C15.9955 13.863 16.7917 12.04 16.7917 10.0912C16.7917 6.14274 13.5309 2.9349 9.5 2.9349C5.46914 2.9349 2.20833 6.14274 2.20833 10.0912C2.20833 12.034 2.99962 13.852 4.3894 15.1961L9.49996 20.2236L14.6045 15.2015ZM9.5 14.3932C11.8012 14.3932 13.6667 12.5277 13.6667 10.2266C13.6667 7.92538 11.8012 6.0599 9.5 6.0599C7.19881 6.0599 5.33333 7.92538 5.33333 10.2266C5.33333 12.5277 7.19881 14.3932 9.5 14.3932ZM9.5 12.3099C8.34941 12.3099 7.41667 11.3772 7.41667 10.2266C7.41667 9.07597 8.34941 8.14323 9.5 8.14323C10.6506 8.14323 11.5833 9.07597 11.5833 10.2266C11.5833 11.3772 10.6506 12.3099 9.5 12.3099Z" fill="#00B7FF"/>
</svg>
