<?xml version="1.0" encoding="UTF-8"?>
<svg width="30" height="30" version="1.1" viewBox="0 0 7.9375 7.9375" xmlns="http://www.w3.org/2000/svg" xmlns:cc="http://creativecommons.org/ns#" xmlns:dc="http://purl.org/dc/elements/1.1/" xmlns:osb="http://www.openswatchbook.org/uri/2009/osb" xmlns:rdf="http://www.w3.org/1999/02/22-rdf-syntax-ns#"><metadata><rdf:RDF><cc:Work rdf:about=""><dc:format>image/svg+xml</dc:format><dc:type rdf:resource="http://purl.org/dc/dcmitype/StillImage"/><dc:title/></cc:Work></rdf:RDF></metadata><g transform="matrix(.26458 0 0 .26458 .82682 .66942)" fill="none"><path d="m12.485 19.337-5.2826 4.0383c-1.1955 0.914-2.9158 0.0603-2.9183-1.4424l-0.00454-2.7503c-2.4596-0.5915-4.2799-2.8123-4.2799-5.4507v-6.9397c0-3.0946 2.5009-5.6051 5.5882-5.6051h12.574c3.0873 0 5.5882 2.5105 5.5882 5.6051v6.9397c0 3.0946-2.5009 5.6051-5.5882 5.6051zm-5.8276 1.4656 4.7046-3.5965c0.2071-0.1584 0.4605-0.2441 0.7212-0.2441h6.0784c1.7736 0 3.2132-1.4452 3.2132-3.2301v-6.9397c0-1.7849-1.4396-3.2301-3.2132-3.2301h-12.574c-1.7736 0-3.2132 1.4451-3.2132 3.2301v6.9397c0 1.7513 1.3883 3.1812 3.1233 3.2288 0.64215 0.0177 1.1539 0.5427 1.1549 1.1851z" clip-rule="evenodd" fill="#92929d" fill-rule="evenodd"/></g></svg>
