<svg width="35" height="35" viewBox="0 0 35 35" xmlns="http://www.w3.org/2000/svg">
<path fill-rule="evenodd" clip-rule="evenodd" d="M7.29036 8.74967H27.707C28.5124 8.74967 29.1654 8.09676 29.1654 7.29134C29.1654 6.48593 28.5124 5.83301 27.707 5.83301H7.29036C6.48495 5.83301 5.83203 6.48593 5.83203 7.29134C5.83203 8.09676 6.48495 8.74967 7.29036 8.74967ZM7.29036 29.1663H27.707C28.5124 29.1663 29.1654 28.5134 29.1654 27.708C29.1654 26.9026 28.5124 26.2497 27.707 26.2497H7.29036C6.48495 26.2497 5.83203 26.9026 5.83203 27.708C5.83203 28.5134 6.48495 29.1663 7.29036 29.1663ZM27.707 18.958H7.29036C6.48495 18.958 5.83203 18.3051 5.83203 17.4997C5.83203 16.6943 6.48495 16.0413 7.29036 16.0413H27.707C28.5124 16.0413 29.1654 16.6943 29.1654 17.4997C29.1654 18.3051 28.5124 18.958 27.707 18.958Z"/>
</svg>
