<svg width="23" height="22" viewBox="0 0 23 22" xmlns="http://www.w3.org/2000/svg">
<path fill-rule="evenodd" clip-rule="evenodd" d="M7.13205 8.11767V6.46007C7.13205 3.91382 9.17945 1.84473 11.7113 1.84473C14.2431 1.84473 16.2905 3.91382 16.2905 6.46007V8.11767H17.5866C18.3233 8.11767 18.9088 8.72097 18.9088 9.45131V18.6312C18.9088 19.3616 18.3233 19.9649 17.5866 19.9649H5.70795C4.97124 19.9649 4.38574 19.3616 4.38574 18.6312V9.45131C4.38574 8.72097 4.97124 8.11767 5.70795 8.11767H7.13205ZM6.04012 9.76473V18.3174H17.2541V9.76473H6.04012ZM14.6356 8.09241V6.4602C14.6356 4.81825 13.3234 3.49214 11.7109 3.49214C10.0985 3.49214 8.78625 4.81825 8.78625 6.4602V8.09241H14.6356Z"/>
</svg>

