<svg width="24" height="24" viewBox="0 0 24 24" xmlns="http://www.w3.org/2000/svg">
<path fill-rule="evenodd" clip-rule="evenodd" d="M15 15.75V17.35C15 18.2451 14.1152 19 13 19H7.5C6.38483 19 5.5 18.2451 5.5 17.35V6.15C5.5 5.25486 6.38483 4.5 7.5 4.5H13C14.1152 4.5 15 5.25486 15 6.15V7.75C15 8.16421 15.3358 8.5 15.75 8.5C16.1642 8.5 16.5 8.16421 16.5 7.75V6.15C16.5 4.39675 14.9239 3 13 3H7.5C5.57609 3 4 4.39675 4 6.15V17.35C4 19.1033 5.57609 20.5 7.5 20.5H13C14.9239 20.5 16.5 19.1033 16.5 17.35V15.75C16.5 14.75 15 14.75 15 15.75ZM9.75 12.5H16.9662L16.4197 13.0465C16.1268 13.3394 16.1268 13.8143 16.4197 14.1072C16.7126 14.4001 17.1874 14.4001 17.4803 14.1072L19.4803 12.1072C19.7718 11.8157 19.7734 11.3435 19.4839 11.0501L17.4839 9.02322C17.1929 8.72838 16.7181 8.72521 16.4232 9.01615C16.1284 9.30708 16.1252 9.78194 16.4161 10.0768L17.3271 11H9.75C9.33579 11 9 11.3358 9 11.75C9 12.1642 9.33579 12.5 9.75 12.5Z"/>
</svg>

