<svg width="23" height="23" viewBox="0 0 23 23" xmlns="http://www.w3.org/2000/svg">
<path fill-rule="evenodd" clip-rule="evenodd" d="M4.38578 4.20996H18.9089C20.4128 4.20996 21.6319 5.42686 21.6319 6.92798V16.8941C21.6319 18.3952 20.4128 19.6121 18.9089 19.6121H4.38578C2.88187 19.6121 1.66271 18.3952 1.66271 16.8941V7.35981C1.66191 7.33786 1.66191 7.31587 1.66271 7.29387V6.92798C1.66271 5.42686 2.88187 4.20996 4.38578 4.20996ZM3.4778 9.06791V16.8939C3.4778 17.3942 3.88419 17.7999 4.38549 17.7999H18.9086C19.4099 17.7999 19.8163 17.3942 19.8163 16.8939V9.06759L13.2084 13.6845C12.2708 14.3396 11.0228 14.3396 10.0852 13.6845L3.4778 9.06791ZM19.8136 6.85762L12.1673 12.2001C11.8548 12.4184 11.4388 12.4184 11.1263 12.2001L3.48046 6.85792C3.5162 6.3902 3.90774 6.02178 4.38549 6.02178H18.9086C19.3862 6.02178 19.7777 6.39004 19.8136 6.85762Z"/>
</svg>

