<?xml version="1.0" encoding="UTF-8" standalone="no"?>
<svg
        xmlns="http://www.w3.org/2000/svg"
        id="svg4"
        version="1.1"
        viewBox="0 0 17 17"
        height="17"
        width="17">
  <path
          fill-rule="evenodd"
          clip-rule="evenodd"
          style="fill-opacity:1;"
          id="path2"
          d="M15.4303 16.2755C15.9364 16.3879 16.3879 15.9364 16.2755 15.4303L15.498 11.9317C16.0177 10.8738 16.2923 9.70636 16.2923 8.50065C16.2923 4.19743 12.8039 0.708984 8.50065 0.708984C4.19743 0.708984 0.708984 4.19743 0.708984 8.50065C0.708984 12.8039 4.19743 16.2923 8.50065 16.2923C9.70636 16.2923 10.8738 16.0177 11.9317 15.498L15.4303 16.2755ZM14.1265 11.5021C14.0466 11.6514 14.0229 11.8244 14.0596 11.9897L14.6511 14.6511L11.9897 14.0596C11.8244 14.0229 11.6514 14.0466 11.5021 14.1265C10.5866 14.616 9.56315 14.8757 8.50065 14.8757C4.97984 14.8757 2.12565 12.0215 2.12565 8.50065C2.12565 4.97984 4.97984 2.12565 8.50065 2.12565C12.0215 2.12565 14.8757 4.97984 14.8757 8.50065C14.8757 9.56315 14.616 10.5866 14.1265 11.5021ZM6.37565 9.91732C7.15805 9.91732 7.79232 9.28305 7.79232 8.50065C7.79232 7.71825 7.15805 7.08398 6.37565 7.08398C5.59325 7.08398 4.95898 7.71825 4.95898 8.50065C4.95898 9.28305 5.59325 9.91732 6.37565 9.91732ZM12.0423 8.50065C12.0423 9.28305 11.4081 9.91732 10.6257 9.91732C9.84325 9.91732 9.20899 9.28305 9.20899 8.50065C9.20899 7.71825 9.84325 7.08398 10.6257 7.08398C11.4081 7.08398 12.0423 7.71825 12.0423 8.50065Z"/>
</svg>
