<?xml version="1.0" encoding="UTF-8"?>
<svg width="24" height="24" version="1.1" viewBox="0 0 7.9375 7.9375" xmlns="http://www.w3.org/2000/svg" xmlns:cc="http://creativecommons.org/ns#" xmlns:dc="http://purl.org/dc/elements/1.1/" xmlns:osb="http://www.openswatchbook.org/uri/2009/osb" xmlns:rdf="http://www.w3.org/1999/02/22-rdf-syntax-ns#"><metadata><rdf:RDF><cc:Work rdf:about=""><dc:format>image/svg+xml</dc:format><dc:type rdf:resource="http://purl.org/dc/dcmitype/StillImage"/><dc:title/></cc:Work></rdf:RDF></metadata><g transform="matrix(.254 0 0 .254 .92614 .79298)" fill="none"><path d="m11.99 21.624-0.9331 1.5192c-0.0589 0.096-0.1331 0.1818-0.2196 0.2541-0.9487 0.7928-2.3978 0.7493-3.2899-0.1035-0.46939-0.4487-0.72046-1.0673-0.68251-1.6411l-0.00186-4.0086-4.5828-3.7271c-0.45201-0.3676-0.80049-0.8464-1.0111-1.3894-0.67044-1.7284 0.19002-3.6717 1.9204-4.3401l18.304-7.0704c0.3543-0.13689 0.6885-0.07655 0.9438 0.09447 0.3173 0.20316 0.5035 0.56705 0.4773 0.94769-0.0045 0.0727-0.017 0.14576-0.0385 0.21808l-4.9911 17.981c-0.4925 1.7743-2.3388 2.8137-4.1231 2.3291-0.4495-0.122-0.8686-0.3357-1.2306-0.6275zm-1.6352-1.3183-1.4086-1.1355 4e-5 2.5471c-0.00102 0.0163 0.0085 0.0397 0.04082 0.0706 0.09776 0.0935 0.278 0.1175 0.41675 0.0662zm-0.86028-3.3694 4.3442 3.5019c0.1375 0.1109 0.2973 0.1924 0.4691 0.239 0.6825 0.1854 1.3849-0.2101 1.5696-0.8758l3.8532-13.882zm-1.7036-1.2243 10.247-11.025-14.097 5.4437c-0.65708 0.2538-0.98286 0.9893-0.72918 1.6431 0.07976 0.2055 0.21186 0.387 0.38338 0.5264z" clip-rule="evenodd" fill="#00b7ff" fill-rule="evenodd"/></g></svg>
