<svg width="20" height="20" viewBox="0 0 20 20" xmlns="http://www.w3.org/2000/svg">
<path fill-rule="evenodd" clip-rule="evenodd" d="M5.00033 1.66699H15.0003C16.8413 1.66699 18.3337 3.15938 18.3337 5.00033V15.0003C18.3337 16.8413 16.8413 18.3337 15.0003 18.3337H5.00033C3.15938 18.3337 1.66699 16.8413 1.66699 15.0003V5.00033C1.66699 3.15938 3.15938 1.66699 5.00033 1.66699ZM5.00033 3.33366C4.07985 3.33366 3.33366 4.07985 3.33366 5.00033V15.0003C3.33366 15.9208 4.07985 16.667 5.00033 16.667H15.0003C15.9208 16.667 16.667 15.9208 16.667 15.0003V5.00033C16.667 4.07985 15.9208 3.33366 15.0003 3.33366H5.00033ZM5.83366 6.66699C5.37342 6.66699 5.00033 6.2939 5.00033 5.83366C5.00033 5.37342 5.37342 5.00033 5.83366 5.00033H14.167C14.6272 5.00033 15.0003 5.37342 15.0003 5.83366C15.0003 6.2939 14.6272 6.66699 14.167 6.66699H5.83366ZM5.83366 10.8337C5.37342 10.8337 5.00033 10.4606 5.00033 10.0003C5.00033 9.54009 5.37342 9.16699 5.83366 9.16699H14.167C14.6272 9.16699 15.0003 9.54009 15.0003 10.0003C15.0003 10.4606 14.6272 10.8337 14.167 10.8337H5.83366ZM5.83366 15.0003C5.37342 15.0003 5.00033 14.6272 5.00033 14.167C5.00033 13.7068 5.37342 13.3337 5.83366 13.3337H10.0003C10.4606 13.3337 10.8337 13.7068 10.8337 14.167C10.8337 14.6272 10.4606 15.0003 10.0003 15.0003H5.83366Z"/>
</svg>

