<svg width="22" height="23" viewBox="0 0 22 23" xmlns="http://www.w3.org/2000/svg">
<path fill-rule="evenodd" clip-rule="evenodd" d="M10.8857 20.2589L9.9899 21.7173C9.93327 21.8095 9.86206 21.8919 9.77905 21.9613C8.8683 22.7224 7.47711 22.6806 6.62075 21.862C6.17013 21.4312 5.9291 20.8373 5.96554 20.2865L5.96375 16.4382L1.56423 12.8602C1.1303 12.5073 0.795764 12.0477 0.593586 11.5264C-0.0500376 9.86709 0.776005 8.00157 2.43713 7.35992L20.0089 0.572349C20.3491 0.440937 20.6699 0.498862 20.915 0.663042C21.2195 0.858077 21.3983 1.20741 21.3732 1.57282C21.3689 1.64262 21.3568 1.71276 21.3362 1.78218L16.5447 19.0442C16.0719 20.7474 14.2995 21.7453 12.5866 21.2801C12.155 21.1629 11.7527 20.9578 11.4052 20.6777L10.8857 20.2589ZM9.31583 18.9934L7.96355 17.9033L7.96358 20.3484C7.96261 20.3641 7.97174 20.3866 8.00277 20.4163C8.09662 20.506 8.26965 20.5291 8.40285 20.4798L9.31583 18.9934ZM8.48998 15.7587L12.6604 19.1206C12.7924 19.227 12.9458 19.3052 13.1108 19.35C13.7659 19.528 14.4402 19.1483 14.6176 18.5092L18.3166 5.18289L8.48998 15.7587ZM6.85449 14.5834L16.6915 3.99968L3.15824 9.22565C2.52744 9.46923 2.21469 10.1753 2.45822 10.803C2.53479 11.0003 2.66161 11.1745 2.82627 11.3084L6.85449 14.5834Z" />
</svg>
