<svg width="25" height="25" viewBox="0 0 25 25" xmlns="http://www.w3.org/2000/svg">
<path fill-rule="evenodd" clip-rule="evenodd" d="M13.5417 11.4583H20.8333C21.4086 11.4583 21.875 11.9247 21.875 12.5C21.875 13.0753 21.4086 13.5417 20.8333 13.5417H13.5417V20.8333C13.5417 21.4086 13.0753 21.875 12.5 21.875C11.9247 21.875 11.4583 21.4086 11.4583 20.8333V13.5417H4.16667C3.59137 13.5417 3.125 13.0753 3.125 12.5C3.125 11.9247 3.59137 11.4583 4.16667 11.4583H11.4583V4.16667C11.4583 3.59137 11.9247 3.125 12.5 3.125C13.0753 3.125 13.5417 3.59137 13.5417 4.16667V11.4583Z"/>
</svg>

