<svg width="30" height="30" viewBox="0 0 30 30" fill="none" xmlns="http://www.w3.org/2000/svg">
<path fill-rule="evenodd" clip-rule="evenodd" d="M2.63748 14.2969C4.9428 8.63523 9.69903 5 15 5C20.301 5 25.0572 8.63523 27.3625 14.2969C27.5458 14.7471 27.5458 15.2529 27.3625 15.7031C25.0572 21.3648 20.301 25 15 25C9.69903 25 4.9428 21.3648 2.63748 15.7031C2.45417 15.2529 2.45417 14.7471 2.63748 14.2969ZM14.9997 22.6875C19.2735 22.6875 23.1918 19.7339 25.187 15.0004C23.1918 10.267 19.2735 7.31336 14.9997 7.31336C10.7258 7.31336 6.80747 10.267 4.81227 15.0004C6.80747 19.7339 10.7258 22.6875 14.9997 22.6875ZM15 19.558C12.5265 19.558 10.5214 17.5174 10.5214 15.0001C10.5214 12.4829 12.5265 10.4423 15 10.4423C17.4734 10.4423 19.4786 12.4829 19.4786 15.0001C19.4786 17.5174 17.4734 19.558 15 19.558ZM15.0003 17.2448C16.2186 17.2448 17.2062 16.2397 17.2062 14.9999C17.2062 13.7601 16.2186 12.755 15.0003 12.755C13.782 12.755 12.7944 13.7601 12.7944 14.9999C12.7944 16.2397 13.782 17.2448 15.0003 17.2448Z" fill="#00B7FF"/>
</svg>

