<svg width="24" height="24" viewBox="0 0 24 24" fill="none" xmlns="http://www.w3.org/2000/svg">
<path fill-rule="evenodd" clip-rule="evenodd" d="M5.84947 5.5L8.12474 3.67937C8.55597 3.33431 8.62582 2.70501 8.28076 2.27379C7.93571 1.84256 7.30641 1.77271 6.87518 2.11777L2.37518 5.71858C2.1303 5.91453 2.00529 6.19687 2.00013 6.48104C2.00006 6.48734 2 6.49366 2 6.5C2 6.61695 2.02008 6.72921 2.05697 6.83352L2.057 6.8336C2.05972 6.84131 2.06254 6.84897 2.06545 6.85658C2.09969 6.94913 2.15362 7.04474 2.22422 7.13105C2.27588 7.19448 2.33516 7.25146 2.40068 7.30058L6.8752 10.8808C7.30644 11.2259 7.93573 11.156 8.28078 10.7248C8.62583 10.2935 8.55596 9.66423 8.12472 9.31918L5.85113 7.5H14.25C17.4256 7.5 20 10.0744 20 13.25C20 16.4256 17.4256 19 14.25 19H7.5C6.94772 19 6.5 19.4477 6.5 20C6.5 20.5523 6.94772 21 7.5 21H14.25C18.5302 21 22 17.5302 22 13.25C22 8.96979 18.5302 5.5 14.25 5.5H5.84947Z" fill="#00B7FF"/>
</svg>
