<svg width="15" height="15" viewBox="0 0 15 15" xmlns="http://www.w3.org/2000/svg">
<path fill-rule="evenodd" clip-rule="evenodd" d="M7.70324 5.22404L7.70124 2.88522C7.7008 2.36465 8.33565 2.10979 8.69529 2.48617L13.1093 7.10567C13.3223 7.32866 13.3223 7.6798 13.1093 7.9028L8.70316 12.5141C8.34386 12.8901 7.70956 12.6361 7.70912 12.116L7.70691 9.52649C5.34446 9.81332 3.73065 10.7721 2.80964 12.3996C2.50898 12.9309 1.69695 12.6923 1.73154 12.0828C1.95202 8.19774 3.9814 5.87026 7.70324 5.22404ZM11.8942 7.50435L8.85634 4.32502L8.85753 5.72C8.85777 6.0104 8.64213 6.25572 8.3541 6.29272C5.61746 6.64421 3.93247 7.89048 3.23585 10.0984C4.47251 9.05609 6.14942 8.46261 8.24332 8.31712C8.57669 8.29395 8.85995 8.55799 8.86023 8.89216L8.86176 10.678L11.8942 7.50435Z"/>
</svg>
