<svg width="20" height="20" viewBox="0 0 20 20" xmlns="http://www.w3.org/2000/svg">
<path fill-rule="evenodd" clip-rule="evenodd" d="M6.66536 0.833008H13.332C16.5537 0.833008 19.1654 3.44468 19.1654 6.66634V13.333C19.1654 16.5547 16.5537 19.1663 13.332 19.1663H6.66536C3.4437 19.1663 0.832031 16.5547 0.832031 13.333V6.66634C0.832031 3.44468 3.4437 0.833008 6.66536 0.833008ZM6.66536 2.49967C4.36418 2.49967 2.4987 4.36515 2.4987 6.66634V13.333C2.4987 15.6342 4.36418 17.4997 6.66536 17.4997H13.332C15.6332 17.4997 17.4987 15.6342 17.4987 13.333V6.66634C17.4987 4.36515 15.6332 2.49967 13.332 2.49967H6.66536ZM6.90944 8.08893L8.67721 9.8567L6.90944 11.6245C6.58401 11.9499 6.58401 12.4775 6.90944 12.803C7.23488 13.1284 7.76252 13.1284 8.08795 12.803L9.85572 11.0352L11.6235 12.803C11.9489 13.1284 12.4766 13.1284 12.802 12.803C13.1274 12.4775 13.1274 11.9499 12.802 11.6245L11.0342 9.8567L12.802 8.08893C13.1274 7.76349 13.1274 7.23586 12.802 6.91042C12.4766 6.58498 11.9489 6.58498 11.6235 6.91042L9.85572 8.67819L8.08795 6.91042C7.76252 6.58498 7.23488 6.58498 6.90944 6.91042C6.58401 7.23586 6.58401 7.76349 6.90944 8.08893Z"/>
</svg>
