<svg width="25" height="25" viewBox="0 0 25 25" xmlns="http://www.w3.org/2000/svg">
<path fill-rule="evenodd" clip-rule="evenodd" d="M4.87867 4.8777C1.15242 8.60395 1.15242 14.6454 4.87867 18.3717C8.42676 21.9197 14.0739 22.0894 17.8228 18.8806L21.5425 22.6003C22.5246 23.5824 23.9977 22.1093 23.0156 21.1272L19.2509 17.3624C22.0714 13.624 21.7786 8.28367 18.3726 4.8777C14.6464 1.15144 8.60493 1.15144 4.87867 4.8777ZM6.3518 6.35084C9.26446 3.43818 13.9868 3.43818 16.8995 6.35084C19.8121 9.2635 19.8121 13.9859 16.8995 16.8985C13.9868 19.8112 9.26446 19.8112 6.3518 16.8985C3.43914 13.9859 3.43914 9.2635 6.3518 6.35084Z"/>
</svg>
