<svg width="20" height="20" viewBox="0 0 20 20" xmlns="http://www.w3.org/2000/svg">
<path fill-rule="evenodd" clip-rule="evenodd" d="M12.5013 4.16634C12.5013 2.32539 13.9937 0.833008 15.8346 0.833008C17.6756 0.833008 19.168 2.32539 19.168 4.16634C19.168 6.00729 17.6756 7.49967 15.8346 7.49967C14.6968 7.49967 13.6922 6.92959 13.0907 6.05948L7.30801 8.87838C7.43315 9.22879 7.5013 9.60627 7.5013 9.99967C7.5013 10.3659 7.44223 10.7184 7.3331 11.0481L13.0826 13.9516C13.6831 13.0749 14.6917 12.4997 15.8346 12.4997C17.6756 12.4997 19.168 13.9921 19.168 15.833C19.168 17.674 17.6756 19.1663 15.8346 19.1663C13.9937 19.1663 12.5013 17.674 12.5013 15.833C12.5013 15.7315 12.5058 15.6311 12.5147 15.532L6.42222 12.4552C5.8288 13.0003 5.03724 13.333 4.16797 13.333C2.32702 13.333 0.834637 11.8406 0.834637 9.99967C0.834637 8.15873 2.32702 6.66634 4.16797 6.66634C5.00649 6.66634 5.77269 6.97596 6.35849 7.4871L12.5164 4.48531C12.5064 4.38033 12.5013 4.27393 12.5013 4.16634ZM17.5013 4.16634C17.5013 3.24587 16.7551 2.49967 15.8346 2.49967C14.9142 2.49967 14.168 3.24587 14.168 4.16634C14.168 5.08682 14.9142 5.83301 15.8346 5.83301C16.7551 5.83301 17.5013 5.08682 17.5013 4.16634ZM17.5013 15.833C17.5013 14.9125 16.7551 14.1663 15.8346 14.1663C14.9142 14.1663 14.168 14.9125 14.168 15.833C14.168 16.7535 14.9142 17.4997 15.8346 17.4997C16.7551 17.4997 17.5013 16.7535 17.5013 15.833ZM4.16797 8.33301C5.08844 8.33301 5.83464 9.0792 5.83464 9.99967C5.83464 10.9201 5.08844 11.6663 4.16797 11.6663C3.24749 11.6663 2.5013 10.9201 2.5013 9.99967C2.5013 9.0792 3.24749 8.33301 4.16797 8.33301Z"/>
</svg>
