<svg xmlns="http://www.w3.org/2000/svg" width="17" height="18" viewBox="0 0 17 18"><path d="M4.41588 17.124C3.87647 17.4836 3.16571 17.0357 3.25739 16.3939L3.95436 11.5152L0.469526 8.03033C0.0325103 7.59331 0.281968 6.84494 0.89379 6.75754L5.72653 6.06715L7.8105 1.20456C8.07025 0.59848 8.92947 0.59848 9.18921 1.20456L11.2732 6.06715L16.1059 6.75754C16.7177 6.84494 16.9672 7.59331 16.5302 8.03033L13.0454 11.5152L13.7423 16.3939C13.834 17.0357 13.1232 17.4836 12.5838 17.124L8.49986 14.4014L4.41588 17.124ZM4.97949 14.9455L8.08378 12.876C8.3357 12.708 8.6639 12.708 8.91583 12.876L12.0201 14.9455L11.5073 11.3561C11.474 11.1224 11.5525 10.8866 11.7195 10.7197L14.4088 8.03034L10.6437 7.49247C10.3846 7.45546 10.1635 7.28603 10.0604 7.04545L8.4998 3.40396L6.93916 7.04545C6.83605 7.28603 6.61498 7.45546 6.35587 7.49247L2.59079 8.03034L5.28013 10.7197C5.44706 10.8866 5.52565 11.1224 5.49226 11.3561L4.97949 14.9455Z"/></svg>
