<svg width="24" height="24" viewBox="0 0 24 24" xmlns="http://www.w3.org/2000/svg">
<path fill-rule="evenodd" clip-rule="evenodd" d="M9.79685 11.5996C12.006 11.5996 13.7968 9.80875 13.7968 7.59961C13.7968 5.39047 12.006 3.59961 9.79685 3.59961C7.58771 3.59961 5.79685 5.39047 5.79685 7.59961C5.79685 9.80875 7.58771 11.5996 9.79685 11.5996ZM17.6868 18.1497C17.8427 18.4592 17.8273 18.8274 17.646 19.1228C17.4647 19.4182 17.1434 19.5986 16.7968 19.5997H2.79678C2.45019 19.5986 2.12885 19.4182 1.94754 19.1228C1.76623 18.8274 1.75081 18.4592 1.90678 18.1497L3.34678 15.2597C3.85558 14.2405 4.89768 13.5975 6.03678 13.5997H13.5568C14.6959 13.5975 15.738 14.2405 16.2468 15.2597L17.6868 18.1497ZM20.7969 9.59961H23.2969C23.573 9.59961 23.7969 9.82347 23.7969 10.0996V11.0996C23.7969 11.3758 23.573 11.5996 23.2969 11.5996H20.7969V14.0996C20.7969 14.3758 20.573 14.5996 20.2969 14.5996H19.2969C19.0207 14.5996 18.7969 14.3758 18.7969 14.0996V11.5996H16.2969C16.0207 11.5996 15.7969 11.3758 15.7969 11.0996V10.0996C15.7969 9.82347 16.0207 9.59961 16.2969 9.59961H18.7969V7.09961C18.7969 6.82347 19.0207 6.59961 19.2969 6.59961H20.2969C20.573 6.59961 20.7969 6.82347 20.7969 7.09961V9.59961Z"/>
</svg>
