<svg width="24" height="24" viewBox="0 0 24 24" xmlns="http://www.w3.org/2000/svg">
<path fill-rule="evenodd" clip-rule="evenodd" d="M2.10999 11.4375C3.95424 6.90818 7.75922 4 12 4C16.2408 4 20.0458 6.90818 21.89 11.4375C22.0367 11.7976 22.0367 12.2024 21.89 12.5625C20.0458 17.0918 16.2408 20 12 20C7.75922 20 3.95424 17.0918 2.10999 12.5625C1.96334 12.2024 1.96334 11.7976 2.10999 11.4375ZM11.9998 18.15C15.4188 18.15 18.5535 15.7871 20.1497 12.0004C18.5535 8.21362 15.4188 5.85071 11.9998 5.85071C8.58073 5.85071 5.44603 8.21362 3.84986 12.0004C5.44603 15.7871 8.58073 18.15 11.9998 18.15ZM12 15.6465C10.0212 15.6465 8.41712 14.014 8.41712 12.0002C8.41712 9.98643 10.0212 8.35394 12 8.35394C13.9788 8.35394 15.5829 9.98643 15.5829 12.0002C15.5829 14.014 13.9788 15.6465 12 15.6465ZM12.0003 13.7958C12.9749 13.7958 13.765 12.9918 13.765 11.9999C13.765 11.008 12.9749 10.204 12.0003 10.204C11.0257 10.204 10.2356 11.008 10.2356 11.9999C10.2356 12.9918 11.0257 13.7958 12.0003 13.7958Z"/>
</svg>